<?xml version="1.0" encoding="UTF-8" standalone="no"?>
<svg
   xmlns:dc="http://purl.org/dc/elements/1.1/"
   xmlns:cc="http://creativecommons.org/ns#"
   xmlns:rdf="http://www.w3.org/1999/02/22-rdf-syntax-ns#"
   xmlns:svg="http://www.w3.org/2000/svg"
   xmlns="http://www.w3.org/2000/svg"
   xmlns:sodipodi="http://sodipodi.sourceforge.net/DTD/sodipodi-0.dtd"
   xmlns:inkscape="http://www.inkscape.org/namespaces/inkscape"
   viewBox="0 0 755.90549 755.90549"
   version="1.1"
   id="svg1808"
   sodipodi:docname="HTML5_Logo.svg"
   inkscape:version="0.92.5 (2060ec1f9f, 2020-04-08)"
   width="20cm"
   height="20cm">
  <metadata
     id="metadata1814">
    <rdf:RDF>
      <cc:Work
         rdf:about="">
        <dc:format>image/svg+xml</dc:format>
        <dc:type
           rdf:resource="http://purl.org/dc/dcmitype/StillImage" />
        <dc:title>HTML5 Logo</dc:title>
      </cc:Work>
    </rdf:RDF>
  </metadata>
  <defs
     id="defs1812" />
  <sodipodi:namedview
     pagecolor="#ffffff"
     bordercolor="#666666"
     borderopacity="1"
     objecttolerance="10"
     gridtolerance="10"
     guidetolerance="10"
     inkscape:pageopacity="0"
     inkscape:pageshadow="2"
     inkscape:window-width="1920"
     inkscape:window-height="946"
     id="namedview1810"
     showgrid="false"
     inkscape:zoom="0.65186406"
     inkscape:cx="332.25152"
     inkscape:cy="271.61157"
     inkscape:window-x="0"
     inkscape:window-y="27"
     inkscape:window-maximized="1"
     inkscape:current-layer="svg1808"
     units="cm" />
  <title
     id="title1786">HTML5 Logo</title>
  <g
     id="g2973"
     transform="matrix(1.3174165,0,0,1.3174165,-107.57824,104.95619)">
    <polygon
       style="fill:#e44d26"
       transform="matrix(1.06665,0,0,1.06665,99.823185,-63.941348)"
       id="polygon1788"
       points="255.778,512 107.644,470.877 74.633,100.62 437.367,100.62 404.321,470.819 " />
    <polygon
       style="fill:#f16529"
       transform="matrix(1.06665,0,0,1.06665,99.823185,-63.941348)"
       id="polygon1790"
       points="256,480.523 376.03,447.246 404.27,130.894 256,130.894 " />
    <polygon
       style="fill:#ebebeb"
       transform="matrix(1.06665,0,0,1.06665,99.823185,-63.941348)"
       id="polygon1792"
       points="256,176.305 255.843,176.305 142.132,176.305 143.219,188.488 154.38,313.627 256,313.627 256,268.217 195.91,268.217 191.76,221.716 256,221.716 " />
    <polygon
       style="fill:#ebebeb"
       transform="matrix(1.06665,0,0,1.06665,99.823185,-63.941348)"
       id="polygon1794"
       points="162.771,407.634 255.791,433.457 256,433.399 256,386.153 255.801,386.206 205.227,372.55 201.994,336.333 177.419,336.333 156.409,336.333 " />
    <path
       style="stroke-width:1.06664991"
       inkscape:connector-curvature="0"
       id="path1796"
       d="m 215.42885,-63.941348 h 24.61508 v 24.31962 h 22.51699 v -24.31962 h 24.61614 v 73.64578 h -24.61507 v -24.66095 H 240.045 v 24.66095 h -24.6151 v -73.64578 z" />
    <path
       style="stroke-width:1.06664991"
       inkscape:connector-curvature="0"
       id="path1798"
       d="m 319.5467,-39.519338 h -21.67006 v -24.42201 h 67.96694 v 24.42201 H 344.1639 v 49.22377 h -24.61614 v -49.22377 z" />
    <path
       style="stroke-width:1.06664991"
       inkscape:connector-curvature="0"
       id="path1800"
       d="m 376.6306,-63.941348 h 25.66681 l 15.78855,25.87692 15.77255,-25.87692 h 25.6764 v 73.64578 h -24.51375 v -36.5029 l -16.9352,26.18519005 h -0.42347 L 400.71555,-26.798468 v 36.5029 H 376.6306 Z" />
    <path
       style="stroke-width:1.06664991"
       inkscape:connector-curvature="0"
       id="path1802"
       d="m 471.78538,-63.941348 h 24.62256 v 49.30269 h 34.61599 v 24.34309 h -59.23855 z" />
    <polygon
       style="fill:#ffffff"
       transform="matrix(1.06665,0,0,1.06665,99.823185,-63.941348)"
       id="polygon1804"
       points="311.761,313.627 306.49,372.521 255.843,386.191 255.843,433.435 348.937,407.634 349.62,399.962 360.291,280.411 361.399,268.217 349.162,268.217 255.843,268.217 255.843,313.627 " />
    <polygon
       style="fill:#ffffff"
       transform="matrix(1.06665,0,0,1.06665,99.823185,-63.941348)"
       id="polygon1806"
       points="365.531,221.716 366.442,211.509 368.511,188.488 369.597,176.305 255.843,176.305 255.843,204.509 255.843,221.605 255.843,221.716 365.385,221.716 " />
  </g>
</svg>
