<?xml version="1.0" encoding="UTF-8" standalone="no"?>
<!-- Created with Inkscape (http://www.inkscape.org/) -->

<svg
   xmlns:dc="http://purl.org/dc/elements/1.1/"
   xmlns:cc="http://creativecommons.org/ns#"
   xmlns:rdf="http://www.w3.org/1999/02/22-rdf-syntax-ns#"
   xmlns:svg="http://www.w3.org/2000/svg"
   xmlns="http://www.w3.org/2000/svg"
   xmlns:sodipodi="http://sodipodi.sourceforge.net/DTD/sodipodi-0.dtd"
   xmlns:inkscape="http://www.inkscape.org/namespaces/inkscape"
   width="210mm"
   height="297mm"
   viewBox="0 0 210 297"
   version="1.1"
   id="svg1643"
   inkscape:version="0.92.5 (2060ec1f9f, 2020-04-08)"
   sodipodi:docname="html.svg">
  <defs
     id="defs1637" />
  <sodipodi:namedview
     id="base"
     pagecolor="#ffffff"
     bordercolor="#666666"
     borderopacity="1.0"
     inkscape:pageopacity="0.0"
     inkscape:pageshadow="2"
     inkscape:zoom="0.35"
     inkscape:cx="-122.85714"
     inkscape:cy="560"
     inkscape:document-units="mm"
     inkscape:current-layer="layer1"
     showgrid="false"
     inkscape:window-width="1920"
     inkscape:window-height="946"
     inkscape:window-x="0"
     inkscape:window-y="27"
     inkscape:window-maximized="1" />
  <metadata
     id="metadata1640">
    <rdf:RDF>
      <cc:Work
         rdf:about="">
        <dc:format>image/svg+xml</dc:format>
        <dc:type
           rdf:resource="http://purl.org/dc/dcmitype/StillImage" />
        <dc:title></dc:title>
      </cc:Work>
    </rdf:RDF>
  </metadata>
  <g
     inkscape:label="Layer 1"
     inkscape:groupmode="layer"
     id="layer1">
    <g
       transform="matrix(1.3125575,0,0,1.3125575,-14.364384,16.014597)"
       id="g2233">
      <g
         id="g2214">
        <path
           sodipodi:nodetypes="scscscsssssssscscccssscsscsccscccccscsccssscccccccccsscsscccscccccccccsscscsscc"
           style="opacity:1;fill:#ff6600;fill-opacity:1;stroke:none;stroke-width:0.161449;stroke-miterlimit:4;stroke-dasharray:none;stroke-opacity:1;paint-order:fill markers stroke"
           d="m 87.403698,184.57423 c -1.997008,-0.57978 -5.360947,-1.53196 -7.475426,-2.11595 -2.114476,-0.584 -4.901742,-1.36302 -6.193922,-1.73116 -1.292183,-0.36814 -2.926096,-0.82776 -3.630922,-1.02138 -1.615451,-0.44377 -6.433738,-1.77737 -25.416444,-7.03475 -8.340439,-2.30993 -15.313146,-4.32558 -15.494904,-4.47921 -0.181759,-0.15364 -0.523029,-2.47578 -0.758376,-5.16031 -0.712425,-8.12639 -2.526707,-28.49342 -3.40283,-38.20001 C 24.797607,122.2471 24.32127,116.8648 23.972348,112.87078 23.623426,108.87677 23.145753,103.49446 22.910853,100.9101 22.213985,93.243203 21.229434,82.181609 20.553579,74.42574 20.205536,70.431727 19.725616,65.049421 19.487094,62.46506 19.24857,59.880699 18.768004,54.498393 18.419175,50.50438 18.070346,46.510368 17.600001,41.224174 17.373968,38.757284 17.147934,36.290394 16.762595,31.965327 16.517644,29.146024 15.778874,20.643221 15.20285,14.310283 14.973192,12.166129 l -0.217329,-2.029042 h 77.395273 77.395274 l -0.27487,3.310543 c -0.29968,3.60933 -1.27459,14.54056 -1.99058,22.319484 -0.45399,4.932365 -1.20126,13.373597 -2.34456,26.484363 -0.33805,3.876541 -0.8167,9.162734 -1.06368,11.747096 -0.24697,2.58436 -0.72088,7.967022 -1.05313,11.961461 -0.33225,3.994446 -0.71147,8.2234 -0.84271,9.397677 -0.13124,1.174284 -0.53077,5.595109 -0.88784,9.824059 -0.35706,4.22896 -0.84171,9.70738 -1.07698,12.17427 -0.23527,2.46689 -0.62701,6.79195 -0.87055,9.61126 -0.24353,2.8193 -0.62914,7.14437 -0.85689,9.61126 -0.3784,4.09839 -0.90471,10.1557 -2.09706,24.13494 -0.66332,7.77684 -0.65606,7.75101 -2.26173,8.05422 -1.2206,0.2305 -5.88718,1.49086 -13.12624,3.54516 -1.29218,0.36669 -2.92609,0.82162 -3.63092,1.01096 -0.70483,0.18932 -2.43485,0.66989 -3.84451,1.06791 -2.85288,0.80553 -3.47411,0.97809 -8.97051,2.49169 -2.11447,0.58228 -10.09182,2.80385 -17.72743,4.93682 -7.635613,2.13297 -14.267384,3.86237 -14.737268,3.84312 -0.469884,-0.0193 -2.488247,-0.50937 -4.485254,-1.08915 z m 30.297632,-19.14247 c 13.95529,-3.86586 25.50668,-7.24473 25.66976,-7.5086 0.16308,-0.26386 0.41105,-2.1468 0.55104,-4.18429 0.13999,-2.0375 1.02801,-12.25857 1.97338,-22.71348 2.62007,-28.97577 5.8414,-65.125667 7.72719,-86.714933 C 154.55644,33.6206 127.45778,30.907755 139.69937,24.171862 l 9.20805,4.728874 L 123.86725,22.9521 H 92.102537 v 9.611261 9.61126 H 67.75401 43.405483 l 0.0088,1.388294 c 0.0048,0.763561 0.298614,4.560009 0.652849,8.43655 0.354235,3.876542 0.934683,10.316087 1.289883,14.310099 0.355201,3.994013 0.818386,9.184093 1.029298,11.533513 0.210915,2.349418 0.678881,7.763529 1.039926,12.031356 0.361048,4.267827 0.782,8.544838 0.935451,9.504468 l 0.279003,1.744789 H 70.37162 92.10255 v 15.42783 c 0,14.48994 -0.04545,15.41483 -0.747543,15.21382 -0.411149,-0.11771 -5.168723,-1.40694 -10.572387,-2.86495 -5.403665,-1.45802 -9.876007,-2.70077 -9.938536,-2.76168 -0.06253,-0.0609 -0.31169,-2.20609 -0.553686,-4.76708 -0.241993,-2.56099 -0.57528,-6.00192 -0.740637,-7.64651 l -0.300654,-2.99017 -9.931635,-0.11467 -9.931636,-0.11466 0.01103,0.969 c 0.0061,0.53295 0.200499,2.89125 0.432083,5.24067 0.231582,2.34942 0.704811,7.5395 1.051616,11.53351 1.026845,11.82576 1.174319,13.04371 1.612157,13.31431 0.229769,0.142 9.18792,2.68912 19.907008,5.66026 l 19.702799,5.61628 -0.09889,9.70337 c -0.05559,5.45475 0.161869,9.91758 0.219564,9.91758 0.0577,0 11.522867,-3.16298 25.478147,-7.02884 z"
           id="path2200"
           inkscape:connector-curvature="0" />
        <path
           style="opacity:1;fill:#ff6600;fill-opacity:1;stroke:none;stroke-width:0.161449;stroke-miterlimit:4;stroke-dasharray:none;stroke-opacity:1;paint-order:fill markers stroke"
           d="M 66.697571,80.940039 C 66.542433,80.467472 66.250229,77.300798 65.239164,65.134855 L 64.964037,61.82431 h 13.569249 13.569251 v 9.824843 9.824844 H 79.487699 c -9.713603,0 -12.655151,-0.122801 -12.790128,-0.533958 z"
           id="path2202"
           inkscape:connector-curvature="0" />
      </g>
      <g
         transform="translate(282.14389,44.211799)"
         id="g2210">
        <path
           style="opacity:1;fill:#ff7f2a;fill-opacity:1;stroke:none;stroke-width:0.61020094;stroke-miterlimit:4;stroke-dasharray:none;stroke-opacity:1;paint-order:fill markers stroke"
           d="m -718.69995,448.04454 0.43338,-37.48258 75.07378,-20.78625 c 41.29059,-11.43245 75.21114,-20.91793 75.37901,-21.07883 0.30158,-0.28908 1.55639,-13.62614 6.1726,-65.60713 1.30115,-14.65149 3.10339,-34.63081 4.00498,-44.39847 0.9016,-9.76767 2.71927,-30.11024 4.03926,-45.20572 1.32001,-15.09548 3.10883,-35.0748 3.97517,-44.39848 0.86633,-9.32368 1.59962,-19.31333 1.62952,-22.19923 l 0.0544,-5.2471 h -85.56797 -85.56796 V 104.50748 67.374215 h 89.36489 89.36491 l 0.98747,-12.512298 c 2.60317,-32.98479 4.48003,-53.2720098 5.30241,-57.314394 l 0.90322,-4.4398475 h -92.99176 -92.99177 l 0.43394,-36.7296475 0.43393,-36.729647 118.57373,-0.414184 c 65.21555,-0.227802 119.16136,0.173443 119.87956,0.891654 0.71821,0.718212 -0.89107,25.969552 -3.57617,56.114088 -2.68511,30.1445385 -6.68264,74.969195 -8.88338,99.610348 -4.8806,54.646583 -9.51065,106.530583 -20.13442,225.624973 -4.47543,50.17028 -8.91744,99.93693 -9.87113,110.59257 -0.95372,10.65563 -2.21324,19.80696 -2.79895,20.33627 -1.24865,1.12843 -189.3047,53.12302 -192.13739,53.12302 -1.43917,0 -1.81031,-9.36653 -1.48523,-37.48258 z"
           id="path2204"
           inkscape:connector-curvature="0"
           transform="scale(0.26458333)" />
        <path
           style="opacity:1;fill:#ff7f2a;fill-opacity:1;stroke:none;stroke-width:0.61020094;stroke-miterlimit:4;stroke-dasharray:none;stroke-opacity:1;paint-order:fill markers stroke"
           d="m -719.07381,274.19169 v -58.33548 l 44.80209,0.42917 c 28.73208,0.27522 44.70661,1.00826 44.53589,2.04365 -0.34459,2.08984 -3.66062,40.51976 -5.98733,69.38805 l -1.81891,22.56784 -18.56664,5.07906 c -10.21164,2.79348 -27.28488,7.44723 -37.94051,10.34166 -10.65563,2.89442 -20.64529,5.61335 -22.19924,6.04206 -2.65307,0.73194 -2.82535,-2.77779 -2.82535,-57.55601 z"
           id="path2206"
           inkscape:connector-curvature="0"
           transform="scale(0.26458333)" />
      </g>
      <g
         style="fill:#e6e6e6"
         transform="matrix(1,0,0,0.99763388,282.35749,43.567744)"
         id="g2222">
        <path
           style="opacity:1;fill:#e6e6e6;fill-opacity:1;stroke:none;stroke-width:0.61020094;stroke-miterlimit:4;stroke-dasharray:none;stroke-opacity:1;paint-order:fill markers stroke"
           d="m -882.80261,210.6602 c -0.39975,-1.99793 -1.50788,-13.80389 -2.4625,-26.23546 -0.95462,-12.43157 -2.46583,-30.59459 -3.35824,-40.36225 -2.63538,-28.8449 -6.38927,-71.239186 -8.14863,-92.02593 -0.90187,-10.655634 -2.32455,-25.912564 -3.16151,-33.90429 -0.83696,-7.991725 -1.53433,-16.528341 -1.54972,-18.97025705 l -0.028,-4.43984745 h 91.21868 91.21869 v 35.5187795 35.51878 h -51.5684 c -28.36262,0 -51.93794,0.597926 -52.3896,1.328727 -0.45166,0.7308 -0.0999,8.177635 0.78174,16.548522 0.88161,8.370887 2.49654,25.027826 3.58874,37.015406 l 1.9858,21.79562 48.80086,0.42729 48.80086,0.4273 v 35.4951 35.49511 h -81.50099 -81.50098 z"
           id="path2216"
           inkscape:connector-curvature="0"
           transform="scale(0.26458333)" />
        <path
           style="opacity:1;fill:#e6e6e6;fill-opacity:1;stroke:none;stroke-width:0.61020094;stroke-miterlimit:4;stroke-dasharray:none;stroke-opacity:1;paint-order:fill markers stroke"
           d="m -796.48586,387.61745 c -39.46872,-11.02762 -71.92339,-20.2123 -72.12148,-20.41039 -0.19809,-0.19809 -1.50278,-13.79737 -2.89931,-30.22062 -1.39653,-16.42326 -3.24917,-38.21545 -4.11698,-48.4271 -0.8678,-10.21165 -2.01415,-22.38087 -2.54743,-27.04271 l -0.96961,-8.47607 h 36.4422 c 34.42914,0 36.4422,0.1656 36.4422,2.99781 0,5.15429 3.28377,45.98557 4.129,51.34099 0.7338,4.64945 1.54448,5.26246 9.23551,6.9835 4.63711,1.03765 10.2474,2.49537 12.46733,3.23936 2.21992,0.744 16.93196,4.79878 32.69342,9.01064 l 28.6572,7.65792 v 36.88041 c 0,34.11719 -0.2117,36.86678 -2.82536,36.69845 -1.55395,-0.10008 -35.11796,-9.20456 -74.58669,-20.23219 z"
           id="path2218"
           inkscape:connector-curvature="0"
           transform="scale(0.26458333)" />
      </g>
    </g>
  </g>
</svg>
