<?xml version="1.0" encoding="UTF-8" standalone="no"?>
<!-- Created with Inkscape (http://www.inkscape.org/) -->

<svg
   xmlns:dc="http://purl.org/dc/elements/1.1/"
   xmlns:cc="http://creativecommons.org/ns#"
   xmlns:rdf="http://www.w3.org/1999/02/22-rdf-syntax-ns#"
   xmlns:svg="http://www.w3.org/2000/svg"
   xmlns="http://www.w3.org/2000/svg"
   xmlns:sodipodi="http://sodipodi.sourceforge.net/DTD/sodipodi-0.dtd"
   xmlns:inkscape="http://www.inkscape.org/namespaces/inkscape"
   width="210mm"
   height="297mm"
   viewBox="0 0 210 297"
   version="1.1"
   id="svg973"
   inkscape:version="0.92.5 (2060ec1f9f, 2020-04-08)"
   sodipodi:docname="java.svg">
  <defs
     id="defs967" />
  <sodipodi:namedview
     id="base"
     pagecolor="#ffffff"
     bordercolor="#666666"
     borderopacity="1.0"
     inkscape:pageopacity="0.0"
     inkscape:pageshadow="2"
     inkscape:zoom="0.35"
     inkscape:cx="-125.71429"
     inkscape:cy="560"
     inkscape:document-units="mm"
     inkscape:current-layer="layer1"
     showgrid="false"
     inkscape:window-width="1920"
     inkscape:window-height="946"
     inkscape:window-x="0"
     inkscape:window-y="27"
     inkscape:window-maximized="1" />
  <metadata
     id="metadata970">
    <rdf:RDF>
      <cc:Work
         rdf:about="">
        <dc:format>image/svg+xml</dc:format>
        <dc:type
           rdf:resource="http://purl.org/dc/dcmitype/StillImage" />
        <dc:title></dc:title>
      </cc:Work>
    </rdf:RDF>
  </metadata>
  <g
     inkscape:label="Layer 1"
     inkscape:groupmode="layer"
     id="layer1">
    <path
       style="opacity:1;fill:#2c5aa0;fill-opacity:1;stroke:none;stroke-width:0.15933469;stroke-miterlimit:4;stroke-dasharray:none;stroke-opacity:1;paint-order:fill markers stroke"
       d="m 41.444963,262.71527 -1.8966,-2.20139 1.82657,-1.20986 c 2.19102,-1.45126 4.09577,-3.55039 5.21836,-5.75084 1.45983,-2.8615 1.7091,-7.70845 1.7091,-33.23252 v -24.56769 h 4.21573 4.21573 l -0.003,24.55663 c -0.004,25.48381 -0.24574,30.31509 -1.71652,34.2461 -1.07784,2.88079 -4.25617,6.43994 -7.481611,8.37811 -3.824589,2.29818 -3.92203,2.29468 -6.08729,-0.21854 z"
       id="path917"
       inkscape:connector-curvature="0" />
    <path
       style="opacity:1;fill:#2c5aa0;fill-opacity:1;stroke:none;stroke-width:0.15933469;stroke-miterlimit:4;stroke-dasharray:none;stroke-opacity:1;paint-order:fill markers stroke"
       d="m 72.112383,250.97953 c -5.45057,-0.78913 -8.56302,-4.1583 -8.95468,-9.69331 -0.63851,-9.0236 5.700792,-14.07491 18.384239,-14.649 l 5.204931,-0.23559 -0.14606,-3.48968 c -0.163539,-3.90725 -0.8196,-5.22109 -3.351919,-6.71268 -2.05299,-1.20926 -8.60692,-1.14327 -13.134801,0.13223 -1.799539,0.50694 -3.435239,0.9217 -3.63488,0.9217 -0.199649,0 -0.48168,-0.74225 -0.62675,-1.64944 -0.14506,-0.90719 -0.37219,-1.93202 -0.50473,-2.27741 -0.17674,-0.46059 0.40915,-0.87121 2.198039,-1.54052 4.314661,-1.61433 8.302541,-2.21824 13.591321,-2.05826 4.437581,0.13423 5.132961,0.26654 7.425481,1.41282 3.054559,1.5273 5.00176,3.92445 5.65246,6.95858 0.284459,1.32641 0.460399,7.93828 0.460399,17.30262 v 15.15588 h -3.12224 -3.122239 l -0.289909,-2.10787 c -0.159451,-1.15932 -0.414991,-2.10786 -0.567873,-2.10786 -0.152879,0 -1.208489,0.66158 -2.345798,1.47017 -3.77934,2.68701 -8.522251,3.83255 -13.114991,3.16762 z m 8.703529,-6.12634 c 1.014572,-0.35496 2.745431,-1.25608 3.846341,-2.00247 l 2.00166,-1.35707 7.94e-4,-4.99789 7.94e-4,-4.99788 -4.965179,0.14979 c -4.29318,0.12952 -5.242171,0.29244 -7.011612,1.20373 -2.49722,1.2861 -3.621408,3.16187 -3.621408,6.04252 0,2.9239 1.042509,4.85773 3.12982,5.80575 2.104171,0.95567 4.187889,1.00401 6.618751,0.15352 z"
       id="path919"
       inkscape:connector-curvature="0" />
    <path
       style="opacity:1;fill:#2c5aa0;fill-opacity:1;stroke:none;stroke-width:0.15933469;stroke-miterlimit:4;stroke-dasharray:none;stroke-opacity:1;paint-order:fill markers stroke"
       d="m 110.74003,245.18241 c -5.06148,-16.21582 -10.58414,-34.30906 -10.58414,-34.67557 0,-0.25134 1.68919,-0.42038 4.20063,-0.42038 h 4.20064 l 1.88211,6.00741 c 4.80681,15.34262 6.10932,19.74412 6.80477,22.99492 0.4115,1.92344 0.89881,3.34625 1.08293,3.1618 1.40093,-1.40346 6.87968,-22.37229 7.77051,-29.74009 l 0.29308,-2.42404 h 4.16716 c 3.57038,0 4.16715,0.0984 4.16715,0.68699 0,0.99484 -1.97927,9.72455 -3.42857,15.122 -1.65492,6.16315 -4.23024,13.63955 -6.7888,19.70854 l -2.08828,4.95348 h -5.00073 -5.00073 z"
       id="path921"
       inkscape:connector-curvature="0" />
    <path
       style="opacity:1;fill:#2c5aa0;fill-opacity:1;stroke:none;stroke-width:0.15933469;stroke-miterlimit:4;stroke-dasharray:none;stroke-opacity:1;paint-order:fill markers stroke"
       d="m 147.99554,250.99626 c -4.3112,-0.65824 -7.61416,-3.33296 -8.6399,-6.99654 -0.68784,-2.45669 -0.35927,-7.16036 0.64525,-9.23726 2.47001,-5.10688 7.91059,-7.64369 17.38354,-8.10554 l 5.16427,-0.25178 v -2.61598 c 0,-4.18437 -0.99005,-6.32152 -3.58238,-7.73303 -1.92914,-1.05041 -8.77904,-0.90496 -12.96907,0.27537 -1.79954,0.50694 -3.43577,0.9217 -3.63607,0.9217 -0.20029,0 -0.47357,-0.54699 -0.60728,-1.21554 -0.13371,-0.66854 -0.3628,-1.69244 -0.5091,-2.27533 -0.24493,-0.97591 -0.074,-1.13161 2.15901,-1.9671 3.85842,-1.44362 7.90769,-2.13035 12.56155,-2.13035 7.33082,0 11.18173,1.81438 13.25982,6.24743 l 1.12262,2.39482 0.1284,16.12517 0.1284,16.12517 h -3.17028 -3.17029 l -0.27962,-2.10787 c -0.28727,-2.16557 -0.88759,-2.64392 -1.85507,-1.47818 -0.7093,0.85466 -4.51221,2.96282 -6.32581,3.50675 -2.22153,0.66628 -5.43911,0.87978 -7.80799,0.51809 z m 10.05642,-6.72839 c 1.114,-0.53928 2.58149,-1.44838 3.26109,-2.02023 1.23476,-1.03898 1.23565,-1.0432 1.23565,-5.89475 v -4.85501 l -4.95349,0.15534 c -5.69006,0.17844 -8.42187,1.14139 -9.84119,3.46899 -1.05976,1.73793 -1.07643,5.45416 -0.0332,7.39937 1.65065,3.07783 6.04586,3.82075 10.33114,1.74629 z"
       id="path923"
       inkscape:connector-curvature="0" />
    <path
       style="opacity:1;fill:#2c5aa0;fill-opacity:1;stroke:none;stroke-width:0.15933469;stroke-miterlimit:4;stroke-dasharray:none;stroke-opacity:1;paint-order:fill markers stroke"
       d="m 91.513633,175.26335 c -15.931121,-0.56515 -37.85803,-2.97493 -43.74718,-4.80784 -2.70485,-0.84184 -4.52294,-2.21993 -4.52294,-3.42832 0,-3.92521 14.4277,-10.05894 23.660542,-10.05894 3.48665,0 3.524678,0.61512 0.0624,1.00882 -3.051041,0.34694 -8.908241,2.35486 -11.099721,3.80511 -3.3476,2.21534 -1.87009,3.93286 4.91125,5.70906 8.711471,2.28174 22.029181,3.38891 40.763836,3.38891 30.46054,0 55.26659,-3.14027 60.79353,-7.69605 1.1906,-0.98138 1.47808,-1.51366 1.47808,-2.73665 v -1.5183 l 1.05394,0.99011 c 1.27733,1.2 1.3268,2.06883 0.1994,3.50208 -3.12866,3.97746 -17.19186,8.13546 -34.42976,10.17968 -11.11894,1.31859 -28.27029,2.04734 -39.123355,1.66233 z"
       id="path925"
       inkscape:connector-curvature="0" />
    <path
       style="opacity:1;fill:#2c5aa0;fill-opacity:1;stroke:none;stroke-width:0.15933469;stroke-miterlimit:4;stroke-dasharray:none;stroke-opacity:1;paint-order:fill markers stroke"
       d="m 98.891165,183.69681 c -7.782501,-0.43925 -15.436082,-1.10047 -19.392362,-1.67538 -4.26512,-0.61979 -11.156698,-2.23297 -10.849919,-2.53974 0.0819,-0.0819 2.50921,0.12177 5.39402,0.45261 21.881241,2.50942 49.338556,1.8516 70.235246,-1.68269 12.63509,-2.137 22.91508,-5.37856 27.65055,-8.71894 1.79166,-1.26384 1.48439,0.0163 -0.56192,2.34107 -4.86246,5.52405 -19.16288,9.45374 -40.85764,11.2275 -5.56237,0.45478 -26.96848,0.858 -31.617975,0.59557 z"
       id="path927"
       inkscape:connector-curvature="0" />
    <path
       style="opacity:1;fill:#2c5aa0;fill-opacity:1;stroke:none;stroke-width:0.15933469;stroke-miterlimit:4;stroke-dasharray:none;stroke-opacity:1;paint-order:fill markers stroke"
       d="m 96.783294,157.94002 c -6.469959,-0.69288 -13.275791,-2.54923 -16.557231,-4.51613 -4.009278,-2.40316 -4.26517,-4.90532 -0.722399,-7.06389 1.04072,-0.63411 2.434338,-1.2831 3.096929,-1.44224 1.10286,-0.26485 1.166932,-0.21871 0.757801,0.54574 -1.456319,2.72116 3.779049,4.10713 17.429846,4.61423 7.53915,0.28007 13.27048,-0.12703 21.28944,-1.51223 l 4.42652,-0.76463 4.50324,2.15964 c 2.47679,1.18781 4.51615,2.27098 4.53191,2.40703 0.0437,0.37749 -7.31861,2.80223 -11.3538,3.73931 -5.95568,1.38308 -13.12014,2.13062 -19.73013,2.05864 -3.40814,-0.0371 -6.860596,-0.13856 -7.672126,-0.22547 z"
       id="path929"
       inkscape:connector-curvature="0" />
    <path
       style="opacity:1;fill:#2c5aa0;fill-opacity:1;stroke:none;stroke-width:0.15933469;stroke-miterlimit:4;stroke-dasharray:none;stroke-opacity:1;paint-order:fill markers stroke"
       d="m 87.930264,137.78104 c -5.508791,-0.75803 -9.40872,-1.71515 -12.329361,-3.02587 -2.40153,-1.07773 -4.11199,-2.63271 -4.11199,-3.73817 0,-1.06601 2.26024,-3.20207 4.681551,-4.42435 3.00536,-1.5171 3.55365,-1.5566 2.659219,-0.19151 -0.429009,0.65475 -0.58928,1.44637 -0.425181,2.10019 0.530511,2.11373 3.491961,2.83038 15.006212,3.63138 10.579816,0.73601 21.651496,0.048 34.104956,-2.11941 l 4.73187,-0.82354 1.79513,1.37026 c 0.98731,0.75363 2.3984,1.62014 3.13574,1.92556 0.73734,0.3054 1.34062,0.68464 1.34062,0.84275 0,0.76958 -14.1743,3.57128 -22.48116,4.44362 -7.46681,0.78413 -22.440186,0.78898 -28.107606,0.009 z"
       id="path931"
       inkscape:connector-curvature="0" />
    <path
       style="opacity:1;fill:#2c5aa0;fill-opacity:1;stroke:none;stroke-width:0.15933469;stroke-miterlimit:4;stroke-dasharray:none;stroke-opacity:1;paint-order:fill markers stroke"
       d="m 82.518914,119.41512 c -11.171741,-0.52937 -18.710031,-1.70448 -22.724721,-3.54246 -2.65009,-1.21325 -2.87829,-2.21541 -0.84708,-3.71998 4.21923,-3.1253 18.94677,-7.5182 24.928031,-7.43547 1.51978,0.021 1.211919,0.18263 -2.467171,1.29506 -7.863499,2.37767 -12.350811,4.99321 -11.33349,6.606 2.675821,4.24205 41.166457,3.92408 69.498477,-0.57413 2.08679,-0.3313 3.98387,-0.59964 4.21574,-0.59629 0.23186,0.003 -1.10801,0.84797 -2.9775,1.87695 -2.76812,1.52362 -4.39595,2.07275 -8.76946,2.95826 -7.44837,1.50813 -18.15655,2.65906 -29.35642,3.15527 -10.281417,0.45552 -10.058088,0.45578 -20.166406,-0.0232 z"
       id="path933"
       inkscape:connector-curvature="0" />
    <path
       style="opacity:1;fill:#2c5aa0;fill-opacity:1;stroke:none;stroke-width:0.15933469;stroke-miterlimit:4;stroke-dasharray:none;stroke-opacity:1;paint-order:fill markers stroke"
       d="m 150.92022,134.2301 c 7.73359,-4.76426 12.27193,-9.12448 14.50812,-13.9387 2.81154,-6.0529 0.19431,-12.6068 -5.97531,-14.963 -1.98941,-0.75976 -6.57407,-0.7478 -8.46136,0.0221 -0.54701,0.22314 -0.71416,0.17909 -0.51895,-0.13677 0.15838,-0.25625 1.37517,-0.87519 2.70399,-1.37541 3.39639,-1.27853 9.86898,-1.07443 12.91274,0.40717 2.71896,1.32351 4.66395,3.07384 6.06615,5.45904 1.00105,1.70283 1.14321,2.39026 1.14321,5.52803 0,3.17363 -0.14335,3.84849 -1.25364,5.90202 -2.81163,5.2002 -9.31576,10.02373 -18.13872,13.45187 -7.00372,2.72127 -7.82321,2.62349 -2.98623,-0.35632 z"
       id="path935"
       inkscape:connector-curvature="0" />
    <path
       style="opacity:1;fill:#2c5aa0;fill-opacity:1;stroke:none;stroke-width:0.01970937;stroke-miterlimit:4;stroke-dasharray:none;stroke-opacity:1;paint-order:fill markers stroke"
       d="m 172.48206,211.90652 c 0,-0.95662 -0.0172,-1.33654 -0.0626,-1.38191 -0.0386,-0.0386 -0.22829,-0.0626 -0.4954,-0.0626 h -0.43283 v -0.18252 -0.18252 h 1.25155 1.25154 v 0.18252 0.18252 h -0.43283 c -0.26711,0 -0.45678,0.024 -0.4954,0.0626 -0.0454,0.0454 -0.0626,0.42529 -0.0626,1.38191 v 1.31934 h -0.26073 -0.26074 z"
       id="path937"
       inkscape:connector-curvature="0" />
    <path
       style="opacity:1;fill:#2c5aa0;fill-opacity:1;stroke:none;stroke-width:0.01970937;stroke-miterlimit:4;stroke-dasharray:none;stroke-opacity:1;paint-order:fill markers stroke"
       d="m 174.67226,211.66143 v -1.56445 h 0.36876 c 0.39285,0 0.51775,0.0613 0.51775,0.25395 0,0.0577 0.0235,0.11945 0.0522,0.13717 0.0287,0.0177 0.0521,0.0881 0.0521,0.15645 0,0.0683 0.0217,0.1376 0.0481,0.15396 0.0265,0.0163 0.0635,0.0999 0.0824,0.1856 0.0188,0.0857 0.0558,0.15584 0.0822,0.15584 0.0264,0 0.048,0.0573 0.048,0.12729 0,0.07 0.0235,0.1418 0.0521,0.15952 0.0287,0.0177 0.0521,0.0781 0.0521,0.13416 0,0.10221 0.0125,0.13496 0.17369,0.45673 0.0479,0.0955 0.087,0.20701 0.087,0.2477 0,0.0901 0.16409,0.0976 0.25031,0.0114 0.0344,-0.0344 0.0626,-0.11655 0.0626,-0.18252 0,-0.066 0.0235,-0.11994 0.0521,-0.11994 0.0287,0 0.0522,-0.0472 0.0522,-0.105 0,-0.0577 0.022,-0.14575 0.0488,-0.19555 0.12526,-0.23246 0.21194,-0.45406 0.21194,-0.54182 0,-0.053 0.0235,-0.0963 0.0521,-0.0963 0.0287,0 0.0521,-0.0473 0.0521,-0.10501 0,-0.0577 0.0206,-0.14575 0.0458,-0.19555 0.11076,-0.21909 0.21495,-0.49132 0.21495,-0.56165 0,-0.0608 0.0854,-0.0764 0.41719,-0.0764 h 0.41718 v 1.56443 1.56443 h -0.23467 -0.23466 v -1.16906 c 0,-0.64298 -0.0142,-1.20618 -0.0317,-1.25154 -0.0393,-0.10253 -0.17693,-0.10913 -0.17693,-0.008 0,0.0407 -0.0392,0.15216 -0.0871,0.2477 -0.16124,0.32177 -0.17369,0.35452 -0.17369,0.45674 0,0.056 -0.0235,0.11642 -0.0522,0.13415 -0.0287,0.0177 -0.0521,0.0759 -0.0521,0.12922 0,0.0533 -0.0392,0.17516 -0.087,0.2707 -0.16124,0.32177 -0.1737,0.35452 -0.1737,0.45673 0,0.0561 -0.0235,0.11643 -0.0521,0.13416 -0.0287,0.0177 -0.0521,0.0895 -0.0521,0.15952 0,0.07 -0.0216,0.12729 -0.048,0.12729 -0.0264,0 -0.0635,0.0704 -0.0824,0.15644 -0.03,0.13664 -0.0569,0.15645 -0.21273,0.15645 -0.1418,0 -0.17838,-0.0207 -0.17838,-0.10122 0,-0.0557 -0.0235,-0.11572 -0.0521,-0.13345 -0.0287,-0.0177 -0.0521,-0.0662 -0.0521,-0.10763 0,-0.0415 -0.0587,-0.19701 -0.13037,-0.34564 -0.0717,-0.14863 -0.13037,-0.3114 -0.13037,-0.3617 0,-0.0503 -0.0235,-0.10596 -0.0522,-0.12369 -0.0287,-0.0177 -0.0521,-0.0781 -0.0521,-0.13415 0,-0.10222 -0.0125,-0.13497 -0.17369,-0.45674 -0.0479,-0.0955 -0.0871,-0.21735 -0.0871,-0.27069 0,-0.0533 -0.0235,-0.1115 -0.0521,-0.12922 -0.0287,-0.0177 -0.0521,-0.0902 -0.0521,-0.16116 0,-0.14759 -0.1442,-0.22896 -0.21306,-0.12022 -0.0253,0.04 -0.0464,0.60665 -0.0469,1.25914 l -7.9e-4,1.18637 h -0.23466 -0.23466 z"
       id="path939"
       inkscape:connector-curvature="0" />
    <path
       style="opacity:1;fill:#ff0000;fill-opacity:1;stroke:none;stroke-width:0.11149303;stroke-miterlimit:4;stroke-dasharray:none;stroke-opacity:1;paint-order:fill markers stroke"
       d="M 100.86415,96.239151 C 93.321303,88.6941 90.072215,84.699831 87.819354,80.20257 c -1.487062,-2.968548 -2.50148,-6.553422 -2.50148,-8.840012 0,-6.398112 4.766689,-12.613505 17.317466,-22.580651 9.11716,-7.240359 10.76005,-8.627088 13.98047,-11.800705 9.12323,-8.990628 12.26579,-17.873426 10.12315,-28.6142241 l -0.20596,-1.032473 0.63594,0.789187 c 1.08597,1.347667 2.6762,5.0290091 3.16785,7.3334711 0.61224,2.869741 0.3943,7.812239 -0.48084,10.904324 -2.46252,8.700732 -9.11146,17.129349 -21.50982,27.267196 -11.969196,9.786924 -16.057506,18.15208 -13.273367,27.158828 1.01818,3.29383 2.71494,6.35707 7.189567,12.979649 4.53336,6.7095 5.91251,8.95301 5.65931,9.20621 -0.0895,0.0895 -3.26533,-2.94094 -7.05749,-6.734219 z"
       id="path941"
       inkscape:connector-curvature="0" />
    <path
       style="opacity:1;fill:#ff0000;fill-opacity:1;stroke:none;stroke-width:0.11149303;stroke-miterlimit:4;stroke-dasharray:none;stroke-opacity:1;paint-order:fill markers stroke"
       d="m 117.04815,107.58733 c 3.0926,-4.05152 3.88782,-8.72025 2.13261,-12.520471 -0.4051,-0.877078 -1.69315,-2.789409 -2.86233,-4.249618 -4.38735,-5.479421 -6.52038,-9.81256 -7.13413,-14.492568 -1.25538,-9.572609 5.75915,-18.624429 20.07291,-25.902852 5.52334,-2.808568 15.96953,-6.893139 16.86536,-6.594527 0.16881,0.05627 -0.99821,0.885033 -2.59338,1.841687 -4.73004,2.836707 -11.35099,7.349856 -14.455,9.853211 -8.33355,6.720922 -11.3922,12.024995 -10.02095,17.377521 0.65864,2.570927 1.7781,4.641096 4.98321,9.215257 3.16837,4.52174 3.6937,5.45261 4.24522,7.5223 1.37327,5.153549 -1.15044,10.74886 -7.07653,15.68932 -2.07912,1.73332 -4.71326,3.63266 -5.03805,3.63266 -0.0914,0 0.3051,-0.61736 0.88106,-1.37192 z"
       id="path943"
       inkscape:connector-curvature="0" />
  </g>
</svg>
