<?xml version="1.0" encoding="UTF-8" standalone="no"?>
<!-- Created with Inkscape (http://www.inkscape.org/) -->

<svg
   xmlns:dc="http://purl.org/dc/elements/1.1/"
   xmlns:cc="http://creativecommons.org/ns#"
   xmlns:rdf="http://www.w3.org/1999/02/22-rdf-syntax-ns#"
   xmlns:svg="http://www.w3.org/2000/svg"
   xmlns="http://www.w3.org/2000/svg"
   xmlns:sodipodi="http://sodipodi.sourceforge.net/DTD/sodipodi-0.dtd"
   xmlns:inkscape="http://www.inkscape.org/namespaces/inkscape"
   width="210mm"
   height="297mm"
   viewBox="0 0 210 297"
   version="1.1"
   id="svg2371"
   inkscape:version="0.92.5 (2060ec1f9f, 2020-04-08)"
   sodipodi:docname="js.svg">
  <defs
     id="defs2365" />
  <sodipodi:namedview
     id="base"
     pagecolor="#ffffff"
     bordercolor="#666666"
     borderopacity="1.0"
     inkscape:pageopacity="0.0"
     inkscape:pageshadow="2"
     inkscape:zoom="0.35"
     inkscape:cx="-122.85714"
     inkscape:cy="560"
     inkscape:document-units="mm"
     inkscape:current-layer="layer1"
     showgrid="false"
     inkscape:window-width="1920"
     inkscape:window-height="946"
     inkscape:window-x="0"
     inkscape:window-y="27"
     inkscape:window-maximized="1" />
  <metadata
     id="metadata2368">
    <rdf:RDF>
      <cc:Work
         rdf:about="">
        <dc:format>image/svg+xml</dc:format>
        <dc:type
           rdf:resource="http://purl.org/dc/dcmitype/StillImage" />
        <dc:title></dc:title>
      </cc:Work>
    </rdf:RDF>
  </metadata>
  <g
     inkscape:label="Layer 1"
     inkscape:groupmode="layer"
     id="layer1">
    <path
       style="opacity:1;fill:#e4a126;fill-opacity:1;stroke:none;stroke-width:0.19550465;stroke-miterlimit:4;stroke-dasharray:none;stroke-opacity:1;paint-order:fill markers stroke"
       d="M 95.790386,266.35532 C 51.254767,253.99497 22.017155,245.76443 21.749743,245.51254 21.568644,245.34195 20.915107,239.38306 20.297437,232.27056 19.67977,225.15806 17.563815,201.41524 15.595315,179.50874 13.626813,157.60223 10.157596,118.38004 7.885939,92.348281 5.614285,66.316533 3.611783,43.563 3.435938,41.784875 L 3.116219,38.55192 H 104.32143 205.52664 l -0.30456,2.715682 c -0.1675,1.493625 -2.05179,22.966907 -4.18729,47.71841 -2.13553,24.751498 -5.2641,60.365718 -6.95241,79.142718 -1.6883,18.777 -3.91427,43.5673 -4.94662,55.08955 -1.03232,11.52225 -2.09714,21.21505 -2.36619,21.53957 -0.85096,1.02626 -12.51615,4.48774 -48.30419,14.33366 -27.09831,7.4552 -33.56094,9.13518 -34.98297,9.09393 -0.67437,-0.0196 -4.135785,-0.84313 -7.692024,-1.83012 z m 28.783074,-20.92143 c 26.49659,-7.22691 45.8837,-12.87546 46.25533,-13.47678 0.17243,-0.27899 0.5929,-3.34864 0.93438,-6.82145 5.57829,-56.73056 15.0672,-162.554635 15.0672,-168.035099 v -2.513187 h -41.10376 -41.10377 l -0.14872,4.765718 -0.14875,4.76572 -9.167973,-0.156049 c -5.042402,-0.08583 -15.711911,0.01426 -23.710053,0.22242 -14.121791,0.367532 -14.555258,0.409966 -14.997774,1.468283 -0.421878,1.008962 -7.282868,75.149154 -8.05905,87.086404 l -0.344752,5.30205 h 28.328594 28.328598 l -0.19741,19.36322 c -0.10856,10.64978 -0.35036,19.51621 -0.53732,19.70317 -0.18697,0.18696 -5.653269,-1.06965 -12.147308,-2.79246 -16.258064,-4.31314 -15.681907,-4.12504 -15.721647,-5.13257 -0.01905,-0.4845 -0.426456,-4.95444 -0.905219,-9.93318 l -0.870506,-9.05228 -13.141404,-0.13837 -13.141431,-0.13836 0.329433,6.34563 c 0.627088,12.07955 3.056863,33.30443 3.911176,34.16539 0.575628,0.58008 35.050995,10.43823 50.104276,14.32719 l 2.19843,0.56795 v 12.65324 c 0,7.08938 0.20331,12.65325 0.46239,12.65325 0.25429,0 9.04147,-2.33993 19.52704,-5.19985 z"
       id="path2353"
       inkscape:connector-curvature="0" />
    <path
       style="opacity:1;fill:#e4a126;fill-opacity:1;stroke:none;stroke-width:0.19550465;stroke-miterlimit:4;stroke-dasharray:none;stroke-opacity:1;paint-order:fill markers stroke"
       d="m 76.912948,130.2385 c 0.129672,-0.78237 0.964141,-9.33677 1.854358,-19.00977 0.890244,-9.67299 1.815201,-17.797827 2.055522,-18.055176 0.416719,-0.446273 22.565012,-1.350677 23.373242,-0.954421 0.21336,0.104611 0.38796,9.021827 0.38796,19.816037 V 131.661 H 90.630588 76.677151 Z"
       id="path2355"
       inkscape:connector-curvature="0" />
    <path
       style="opacity:1;fill:#f0be25;fill-opacity:1;stroke:none;stroke-width:0.19550465;stroke-miterlimit:4;stroke-dasharray:none;stroke-opacity:1;paint-order:fill markers stroke"
       d="m 104.90732,249.01725 c -0.17782,-0.88905 -0.32329,-6.57492 -0.32329,-12.63526 0,-10.0591 -0.0789,-11.03936 -0.90525,-11.25533 -0.61399,-0.16045 -0.48918,-0.25597 0.38796,-0.29691 2.20554,-0.10292 36.1329,-9.44036 47.4557,-13.06068 3.86291,-1.23513 4.83018,-1.74758 5.03854,-2.66946 0.75805,-3.35401 7.1887,-76.37986 6.76346,-76.80549 -0.20577,-0.20597 -13.50653,-0.45117 -29.55727,-0.54492 l -29.18314,-0.17045 v -17.99876 c 0,-9.89931 -0.15304,-18.763871 -0.34007,-19.699015 l -0.34004,-1.70026 10.81482,0.350293 c 12.05738,0.390541 18.4776,0.830035 19.26883,1.319038 0.5986,0.369951 1.31686,5.495605 2.39255,17.073614 0.49067,5.28123 0.96748,8.11521 1.41293,8.39777 0.36978,0.23455 6.35156,0.43003 13.29285,0.43438 l 12.62054,0.008 -0.31617,-4.00886 c -0.17389,-2.20487 -1.25587,-14.48069 -2.4044,-27.279585 -1.14853,-12.798898 -2.08823,-23.44825 -2.08823,-23.665226 0,-0.216974 -14.14094,-0.440753 -31.42429,-0.497282 -17.28339,-0.05653 -29.685333,-0.18415 -27.559885,-0.283604 2.258335,-0.105669 4.028655,-0.439176 4.259585,-0.802447 0.2173,-0.341892 0.39868,-2.425612 0.40304,-4.630486 l 0.008,-4.008864 h 41.19376 41.19377 l -0.35692,5.560683 c -0.82516,12.854811 -6.55037,77.368841 -11.69816,131.819421 -3.87218,40.95799 -3.64567,38.87536 -4.3248,39.76192 -0.71811,0.93747 -15.51464,5.35848 -43.464,12.9865 -11.92573,3.25481 -21.73129,5.91784 -21.79011,5.91784 -0.0588,0 -0.25244,-0.72743 -0.43024,-1.61648 z"
       id="path2357"
       inkscape:connector-curvature="0" />
    <path
       style="opacity:1;fill:#f0be25;fill-opacity:1;stroke:none;stroke-width:0.19550465;stroke-miterlimit:4;stroke-dasharray:none;stroke-opacity:1;paint-order:fill markers stroke"
       d="m 103.08093,197.01359 c 0.69702,-0.18682 0.87694,-1.59881 1.16229,-9.12158 0.18571,-4.89531 0.33835,-13.6142 0.33922,-19.37533 l 0.003,-10.47476 h 15.2944 c 14.32509,0 15.27712,0.0574 15.02177,0.90522 -0.14994,0.49787 -0.87334,7.30648 -1.60756,15.13023 -0.73422,7.82375 -1.45666,14.62936 -1.60544,15.12359 -0.18031,0.59897 -1.68247,1.32627 -4.50524,2.18129 -6.94918,2.10492 -22.51088,5.97692 -23.7621,5.91239 -0.74029,-0.0382 -0.86358,-0.14042 -0.33894,-0.28105 z"
       id="path2359"
       inkscape:connector-curvature="0" />
    <path
       style="opacity:1;fill:#eaebec;fill-opacity:1;stroke:none;stroke-width:0.19550465;stroke-miterlimit:4;stroke-dasharray:none;stroke-opacity:1;paint-order:fill markers stroke"
       d="m 135.10311,158.55919 c 0,-1.02629 -0.34486,-1.03455 -43.192282,-1.03455 H 48.718551 v -2.05138 c 0,-3.31089 5.510107,-65.750193 7.647596,-86.660889 l 0.370152,-3.620905 6.207257,-0.317819 c 3.413998,-0.1748 17.147593,-0.298791 30.519106,-0.275534 13.371488,0.02326 21.343968,0.115035 17.716588,0.203954 l -6.59522,0.161671 V 78.108994 91.25425 l 2.1984,0.198012 c 1.20912,0.1089 -1.7807,0.23867 -6.64409,0.288375 -4.863362,0.04971 -11.327318,0.242411 -14.364338,0.42823 -5.050287,0.309005 -5.541724,0.430488 -5.754528,1.422501 -0.282046,1.314926 -2.713197,27.113502 -3.185346,33.802132 l -0.337767,4.78478 h 13.526559 13.52656 v 12.41454 12.41455 h 16.03545 16.03544 v 1.29318 c 0,0.71125 -0.11636,1.29318 -0.25863,1.29318 -0.14224,0 -0.25863,-0.46554 -0.25863,-1.03454 z"
       id="path2361"
       inkscape:connector-curvature="0" />
    <path
       style="opacity:1;fill:#eaebec;fill-opacity:1;stroke:none;stroke-width:0.19550465;stroke-miterlimit:4;stroke-dasharray:none;stroke-opacity:1;paint-order:fill markers stroke"
       d="m 95.014469,222.39955 c -24.741108,-6.89788 -41.491058,-11.70107 -42.085233,-12.06828 -0.385101,-0.23802 -0.974805,-2.59615 -1.383374,-5.53188 -1.013936,-7.28568 -2.827311,-27.2216 -2.827311,-31.08307 v -3.25986 h 12.601972 12.601972 l 0.303106,2.71568 c 0.166714,1.49363 0.582692,5.98888 0.924428,9.98945 l 0.621295,7.27377 6.2593,1.72666 c 3.442626,0.94966 10.100046,2.73195 14.79431,3.96065 4.694236,1.22871 8.127636,2.24132 7.629766,2.25026 -0.83352,0.015 -0.90278,0.86644 -0.87439,10.74967 0.0169,5.90337 0.21283,11.83908 0.43526,13.19045 0.27689,1.68208 0.22635,2.4471 -0.16015,2.42552 -0.31051,-0.0174 -4.288956,-1.0699 -8.840951,-2.33902 z"
       id="path2363"
       inkscape:connector-curvature="0" />
  </g>
</svg>
