<?xml version="1.0" encoding="UTF-8" standalone="no"?>
<!-- Created with Inkscape (http://www.inkscape.org/) -->

<svg
   xmlns:dc="http://purl.org/dc/elements/1.1/"
   xmlns:cc="http://creativecommons.org/ns#"
   xmlns:rdf="http://www.w3.org/1999/02/22-rdf-syntax-ns#"
   xmlns:svg="http://www.w3.org/2000/svg"
   xmlns="http://www.w3.org/2000/svg"
   xmlns:sodipodi="http://sodipodi.sourceforge.net/DTD/sodipodi-0.dtd"
   xmlns:inkscape="http://www.inkscape.org/namespaces/inkscape"
   width="210mm"
   height="297mm"
   viewBox="0 0 210 297"
   version="1.1"
   id="svg4300"
   inkscape:version="0.92.5 (2060ec1f9f, 2020-04-08)"
   sodipodi:docname="python.svg">
  <defs
     id="defs4294" />
  <sodipodi:namedview
     id="base"
     pagecolor="#ffffff"
     bordercolor="#666666"
     borderopacity="1.0"
     inkscape:pageopacity="0.0"
     inkscape:pageshadow="2"
     inkscape:zoom="0.35"
     inkscape:cx="-122.85714"
     inkscape:cy="560"
     inkscape:document-units="mm"
     inkscape:current-layer="layer1"
     showgrid="false"
     inkscape:window-width="1920"
     inkscape:window-height="946"
     inkscape:window-x="0"
     inkscape:window-y="27"
     inkscape:window-maximized="1" />
  <metadata
     id="metadata4297">
    <rdf:RDF>
      <cc:Work
         rdf:about="">
        <dc:format>image/svg+xml</dc:format>
        <dc:type
           rdf:resource="http://purl.org/dc/dcmitype/StillImage" />
        <dc:title></dc:title>
      </cc:Work>
    </rdf:RDF>
  </metadata>
  <g
     inkscape:label="Layer 1"
     inkscape:groupmode="layer"
     id="layer1">
    <path
       style="opacity:1;fill:#3571a3;fill-opacity:1;stroke:none;stroke-width:0.28853285;stroke-miterlimit:4;stroke-dasharray:none;stroke-opacity:1;paint-order:fill markers stroke"
       d="M 25.25899,211.06485 C 17.661927,208.44052 11.251646,201.27173 7.4469294,191.14509 4.4304858,183.11656 3.4765392,176.18917 3.449881,162.11932 3.4285611,150.86939 3.6893282,147.68979 5.1011421,141.98496 8.5967223,127.8601 16.39051,117.88198 26.324248,114.81376 c 4.764454,-1.47159 6.976455,-1.55269 42.353664,-1.55269 h 37.326668 v -3.81704 -3.81706 H 81.193759 56.38294 V 92.2369 c 0,-11.689243 0.185443,-13.749871 1.45992,-16.222466 4.607173,-8.938302 16.260595,-13.835146 36.834488,-15.478085 29.763972,-2.376823 52.222452,4.467695 58.503312,17.829675 1.6374,3.4834 1.68215,4.316552 1.68215,31.315396 0,23.78797 -0.17991,28.27241 -1.26373,31.49898 -2.66245,7.92619 -7.48493,12.69535 -15.69272,15.51925 -3.91833,1.3481 -7.35054,1.5402 -35.4874,1.98607 -24.186147,0.38328 -32.00282,0.74716 -34.96658,1.62778 -7.73181,2.29733 -14.31569,9.09946 -16.862213,17.42117 -0.810632,2.64905 -1.317708,8.67818 -1.624103,19.31064 l -0.445481,15.45904 -9.619346,-0.0249 c -7.269828,-0.0189 -10.601934,-0.36434 -13.642247,-1.41457 z M 83.515332,90.861834 c 1.402829,-1.402842 2.783576,-3.478886 3.068336,-4.61345 1.223022,-4.872898 -3.923225,-11.16122 -9.129002,-11.154944 -3.405628,0.0041 -7.23117,2.62695 -8.596056,5.893586 -2.475252,5.924097 2.052236,12.425392 8.653012,12.425392 2.897246,0 3.863698,-0.410578 6.00371,-2.550584 z"
       id="path4280"
       inkscape:connector-curvature="0" />
    <path
       style="opacity:1;fill:#fdd042;fill-opacity:1;stroke:none;stroke-width:0.28853285;stroke-miterlimit:4;stroke-dasharray:none;stroke-opacity:1;paint-order:fill markers stroke"
       d="m 93.408314,263.60499 c -14.364083,-1.49132 -24.96099,-5.55773 -31.337068,-12.02517 -5.811468,-5.89473 -5.805415,-5.85243 -5.540302,-38.72524 0.189187,-23.45884 0.4455,-29.4143 1.34572,-31.26832 3.715445,-7.65203 9.181959,-12.47042 16.43143,-14.48325 2.823651,-0.78401 11.867496,-1.19078 34.368416,-1.54584 33.14018,-0.52293 35.27507,-0.77322 41.76394,-4.89639 4.10793,-2.61027 8.52109,-8.74991 10.27182,-14.2903 0.82077,-2.59739 1.29794,-8.37784 1.58308,-19.17717 l 0.40818,-15.45905 h 9.79238 c 8.16863,0 10.52407,0.27375 14.20499,1.65096 5.80494,2.17191 12.0968,8.39974 15.29973,15.14405 4.35675,9.17381 4.94476,12.59811 5.32963,31.03672 0.31887,15.27697 0.2007,17.51606 -1.22133,23.13943 -3.20138,12.65975 -9.37936,21.38956 -18.20357,25.72261 l -4.41468,2.1678 -39.12476,0.22335 -39.12475,0.22336 v 3.78456 3.78453 h 24.81082 24.81082 v 13.38419 c 0,15.58566 -0.32348,16.76925 -5.97065,21.84654 -7.00498,6.29808 -19.10927,9.51215 -38.16772,10.13475 -5.74499,0.18767 -13.537247,0.0202 -17.316126,-0.37212 z m 45.771226,-16.27343 c 0.94251,-0.61754 2.31988,-2.40036 3.06083,-3.96176 1.12545,-2.37171 1.20477,-3.31415 0.48202,-5.7265 -2.5858,-8.63061 -13.88962,-9.25386 -17.3563,-0.95693 -3.34492,8.0055 6.39113,15.50849 13.81345,10.64519 z"
       id="path4282"
       inkscape:connector-curvature="0" />
  </g>
</svg>
