<?xml version="1.0" encoding="UTF-8" standalone="no"?>
<svg
   xmlns:dc="http://purl.org/dc/elements/1.1/"
   xmlns:cc="http://creativecommons.org/ns#"
   xmlns:rdf="http://www.w3.org/1999/02/22-rdf-syntax-ns#"
   xmlns:svg="http://www.w3.org/2000/svg"
   xmlns="http://www.w3.org/2000/svg"
   xmlns:sodipodi="http://sodipodi.sourceforge.net/DTD/sodipodi-0.dtd"
   xmlns:inkscape="http://www.inkscape.org/namespaces/inkscape"
   id="59725d3d-bdd8-4af0-9b66-49b8d09410bc"
   data-name="Layer 1"
   width="1041.32"
   height="554.17"
   viewBox="0 0 1041.32 554.17"
   version="1.1"
   sodipodi:docname="undraw_programming_2svr.svg"
   inkscape:version="0.92.5 (2060ec1f9f, 2020-04-08)">
  <metadata
     id="metadata1199">
    <rdf:RDF>
      <cc:Work
         rdf:about="">
        <dc:format>image/svg+xml</dc:format>
        <dc:type
           rdf:resource="http://purl.org/dc/dcmitype/StillImage" />
      </cc:Work>
    </rdf:RDF>
  </metadata>
  <sodipodi:namedview
     pagecolor="#ffffff"
     bordercolor="#666666"
     borderopacity="1"
     objecttolerance="10"
     gridtolerance="10"
     guidetolerance="10"
     inkscape:pageopacity="0"
     inkscape:pageshadow="2"
     inkscape:window-width="1920"
     inkscape:window-height="946"
     id="namedview1197"
     showgrid="false"
     showguides="true"
     inkscape:guide-bbox="true"
     inkscape:zoom="1.0521679"
     inkscape:cx="474.56381"
     inkscape:cy="277.30109"
     inkscape:window-x="0"
     inkscape:window-y="27"
     inkscape:window-maximized="1"
     inkscape:current-layer="59725d3d-bdd8-4af0-9b66-49b8d09410bc">
    <sodipodi:guide
       position="606.85891,417.00549"
       orientation="0,1"
       id="guide1201"
       inkscape:locked="false" />
    <sodipodi:guide
       position="-0.85331359,305.48626"
       orientation="1,0"
       id="guide1281"
       inkscape:locked="false" />
    <sodipodi:guide
       position="1040.1893,302.073"
       orientation="1,0"
       id="guide1283"
       inkscape:locked="false" />
  </sodipodi:namedview>
  <defs
     id="defs1040">
    <linearGradient
       id="dff037aa-d578-4bab-81e7-399360663117"
       x1="597.75"
       y1="725.44"
       x2="597.75"
       y2="347.69"
       gradientUnits="userSpaceOnUse"
       gradientTransform="rotate(0.47535849,21400.815,-9203.768)">
      <stop
         offset="0"
         stop-color="gray"
         stop-opacity="0.25"
         id="stop1033" />
      <stop
         offset="0.54"
         stop-color="gray"
         stop-opacity="0.12"
         id="stop1035" />
      <stop
         offset="1"
         stop-color="gray"
         stop-opacity="0.1"
         id="stop1037" />
    </linearGradient>
  </defs>
  <title
     id="title1042">programming</title>
  <path
     d="m 960.09174,441.866 q -1.77105,3.73544 -3.53128,7.37096 -2.74694,5.6474 -5.42207,11.0754 c -0.79333,1.60347 -1.58641,3.17694 -2.35949,4.75058 -8.74548,17.49805 -16.90413,32.97089 -23.82992,45.69387 a 73.21,73.21 0 0 1 -64.12888,38.16927 l -151.65847,0.39178 -1.59994,-0.0133 -13.00072,0.0321 -11.12061,0.0277 -34.1019,0.0871 -1.37995,-0.0114 -17.36098,0.046 -0.52998,-0.004 -107.00594,0.27224 -95.51501,0.20756 -11.11061,0.0278 -69.00385,0.17751 -0.08,-6.6e-4 -44.75244,0.10872 -0.47999,-0.004 -141.50782,0.356 -42.33236,0.10879 A 88.07,88.07 0 0 1 91.642142,546.69454 86.39,86.39 0 0 1 52.758825,521.62108 C 34.745629,501.44094 21.689974,477.96182 13.000679,452.52885 Q 11.116293,447.02303 9.4930593,441.37937 C -20.451802,336.97734 18.221702,202.92358 86.565395,113.56751 q 4.296646,-5.60454 8.730964,-10.92794 l 0.07066,-0.0794 C 116.36803,77.213529 139.85411,56.087654 164.80903,41.134177 209.03077,14.590148 257.84198,7.4148622 305.60291,30.401901 c 40.40998,19.45593 78.21409,28.759891 114.91258,31.504453 3.70788,0.270772 7.41626,0.481546 11.10522,0.622156 84.20512,3.348721 163.3942,-26.345311 256.25354,-45.165553 3.69634,-0.749359 7.4026,-1.488636 11.13853,-2.187665 66.23691,-12.6109011 139.65196,-18.9420328 226.76791,-3.62875 a 189.09,189.09 0 0 1 26.70598,6.621793 q 5.75437,1.907807 11.08644,4.092119 c 41.49799,17.284882 63.94759,48.772218 73.27179,88.070926 q 1.3247,5.47118 2.2778,11.12928 c 16.3267,94.47871 -34.8918,227.87837 -79.03096,320.40535 z"
     id="path1044"
     inkscape:connector-curvature="0"
     style="opacity:0.1;fill:#6c63ff" />
  <g
     style="opacity:0.1"
     id="g1058"
     transform="rotate(0.47535849,520.12412,272.70935)">
    <path
       style="fill:#6c63ff"
       inkscape:connector-curvature="0"
       d="m 242.24,217 v 509.62 l -42.33,0.46 a 88.07,88.07 0 0 1 -26.67,-3.82 V 279 h 0.07 c 20.79,-25.55 44.1,-46.87 68.93,-62 z"
       transform="translate(-79.34,-172.91)"
       id="path1046" />
    <path
       style="fill:#6c63ff"
       inkscape:connector-curvature="0"
       d="M 1117.24,290.08 H 164.6 q 4.25,-5.64 8.64,-11 V 279 h 941.63 q 1.37,5.43 2.37,11.08 z"
       transform="translate(-79.34,-172.91)"
       id="path1048" />
    <path
       style="fill:#6c63ff"
       inkscape:connector-curvature="0"
       d="m 1040.82,191.51 v 427 h -3.47 q -2.7,5.67 -5.33,11.12 c -0.78,1.61 -1.56,3.19 -2.32,4.77 V 187.47 q 5.77,1.86 11.12,4.04 z"
       transform="translate(-79.34,-172.91)"
       id="path1050" />
    <path
       style="fill:#6c63ff"
       inkscape:connector-curvature="0"
       d="m 776.21,186.58 v 534.25 l -11.12,0.12 V 188.86 c 3.69,-0.78 7.39,-1.55 11.12,-2.28 z"
       transform="translate(-79.34,-172.91)"
       id="path1052" />
    <path
       style="fill:#6c63ff"
       inkscape:connector-curvature="0"
       d="m 509.22,236.15 v 487.58 l -11.11,0.12 V 235.62 c 3.71,0.24 7.42,0.38 11.11,0.53 z"
       transform="translate(-79.34,-172.91)"
       id="path1054" />
    <path
       style="fill:#6c63ff"
       inkscape:connector-curvature="0"
       d="m 1037.35,618.52 q -2.7,5.67 -5.33,11.12 H 93.85 q -1.93,-5.49 -3.6,-11.12 z"
       transform="translate(-79.34,-172.91)"
       id="path1056" />
  </g>
  <rect
     style="fill:#3f3d56"
     x="213.84464"
     y="261.5054"
     width="19"
     height="57.66"
     id="rect1060"
     transform="rotate(0.47535849)" />
  <rect
     style="fill:#3f3d56"
     x="725.17462"
     y="258.5054"
     width="19"
     height="61"
     id="rect1062"
     transform="rotate(0.47535849)" />
  <polygon
     style="fill:#65617d"
     points="349.78,551.4 349.63,551.4 304.98,551.82 304.5,551.83 106.1,553.65 106.1,538.65 152.75,510.65 246.35,509.87 248.35,509.86 249.01,509.85 251.01,509.82 295.95,509.45 297.96,509.44 298.6,509.43 300.6,509.42 315.01,509.3 315.39,509.29 350.94,508.99 351.23,508.99 628.63,506.65 635.42,506.6 636.1,506.6 641.28,506.55 678.93,506.24 680.93,506.21 682.78,506.19 683.74,506.19 695.45,506.1 697.77,506.07 700.88,506.05 710.63,505.96 726.1,505.83 728.1,505.81 731.58,505.79 732.23,505.79 806.94,505.15 863.1,533.65 863.1,546.65 711.18,548.05 709.56,548.08 651.82,548.61 650.44,548.63 632.89,548.78 632.37,548.78 525.39,549.77 "
     id="polygon1064"
     transform="rotate(0.47535849,520.12412,272.70935)" />
  <polygon
     style="opacity:0.2"
     points="349.78,551.4 349.63,551.4 304.98,551.82 304.5,551.83 106.1,553.65 106.1,538.65 152.75,510.65 246.35,509.87 248.35,509.86 249.01,509.85 251.01,509.82 295.95,509.45 297.96,509.44 298.6,509.43 300.6,509.42 315.01,509.3 315.39,509.29 350.94,508.99 351.23,508.99 628.63,506.65 635.42,506.6 636.1,506.6 641.28,506.55 678.93,506.24 680.93,506.21 682.78,506.19 683.74,506.19 695.45,506.1 697.77,506.07 700.88,506.05 710.63,505.96 726.1,505.83 728.1,505.81 731.58,505.79 732.23,505.79 806.94,505.15 863.1,533.65 863.1,546.65 711.18,548.05 709.56,548.08 651.82,548.61 650.44,548.63 632.89,548.78 632.37,548.78 525.39,549.77 "
     id="polygon1066"
     transform="rotate(0.47535849,520.12412,272.70935)" />
  <path
     style="fill:#3f3d56"
     inkscape:connector-curvature="0"
     d="m 294.35756,481.79413 -0.20318,24.48916 a 6.13,6.13 0 0 1 -3.54584,5.51077 6,6 0 0 1 -2.50489,0.57924 l -34.90494,0.45043 a 6,6 0 0 1 -2.69518,-0.59238 6.12,6.12 0 0 1 -3.52366,-5.59943 l 0.20932,-25.22913 z"
     id="path1068" />
  <path
     style="opacity:0.1"
     inkscape:connector-curvature="0"
     d="m 294.35756,481.79413 -0.20318,24.48916 a 6.13,6.13 0 0 1 -3.54584,5.51077 6,6 0 0 1 -2.50489,0.57924 l -34.90494,0.45043 a 6,6 0 0 1 -2.69518,-0.59238 6.12,6.12 0 0 1 -3.52366,-5.59943 l 0.20932,-25.22913 z"
     id="path1070" />
  <path
     style="fill:#3f3d56"
     inkscape:connector-curvature="0"
     d="m 296.35749,481.81073 -0.20318,24.48915 a 6.13,6.13 0 0 1 -3.54584,5.51077 6,6 0 0 1 -2.50489,0.57924 l -34.90494,0.45043 a 6,6 0 0 1 -2.69518,-0.59238 6.12,6.12 0 0 1 -3.52366,-5.59943 l 0.20932,-25.22913 z"
     id="path1072" />
  <rect
     style="fill:#3f3d56"
     x="683.17462"
     y="479.33542"
     width="47.169998"
     height="31.5"
     id="rect1074"
     transform="rotate(0.47535849)" />
  <rect
     style="opacity:0.1"
     x="683.17462"
     y="479.33542"
     width="47.169998"
     height="31.5"
     id="rect1076"
     transform="rotate(0.47535849)" />
  <rect
     style="fill:#3f3d56"
     x="681.17462"
     y="479.33542"
     width="47.169998"
     height="31.5"
     id="rect1078"
     transform="rotate(0.47535849)" />
  <polygon
     style="opacity:0.1"
     points="230.6,271.55 211.6,271.06 211.6,265.82 230.6,265.82 "
     id="polygon1080"
     transform="rotate(0.47535849,520.12412,272.70935)" />
  <path
     style="fill:#65617d"
     inkscape:connector-curvature="0"
     d="M 357.06203,103.04132 332.8722,266.84627 a 4.3,4.3 0 0 1 -4.40063,3.67362 l -182.75438,-6.25644 -3.46914,-0.11878 a 4.3,4.3 0 0 1 -4.11945,-4.90435 L 165.18206,87.778871 a 4.3,4.3 0 0 1 4.56996,-3.59221 l 183.35064,13.941644 a 4.29,4.29 0 0 1 3.95937,4.913015 z"
     id="path1082" />
  <polygon
     points="156.6,250.49 324.6,255.82 345.26,109.82 175.93,99.16 "
     id="polygon1084"
     style="fill:#2babc1;fill-opacity:1"
     transform="rotate(0.47535849,520.12412,272.70935)" />
  <rect
     style="fill:#65617d"
     x="386.84464"
     y="92.495415"
     width="204.67"
     height="173.33"
     rx="5.3299999"
     ry="5.3299999"
     id="rect1086"
     transform="rotate(0.47535849)" />
  <rect
     x="396.50464"
     y="104.16541"
     width="186"
     height="144.33"
     id="rect1088"
     style="fill:#2babc1;fill-opacity:1"
     transform="rotate(0.47535849)" />
  <polygon
     style="opacity:0.1"
     points="741.93,266.61 722.93,267 722.93,262.82 741.93,262.82 "
     id="polygon1090"
     transform="rotate(0.47535849,520.12412,272.70935)" />
  <path
     style="fill:#65617d"
     inkscape:connector-curvature="0"
     d="m 827.75801,262.17192 a 3.08,3.08 0 0 1 -3.02711,3.255 l -187.22566,2.31676 a 3.08,3.08 0 0 1 -3.10675,-2.81587 L 619.69688,97.520077 a 3.08,3.08 0 0 1 2.94786,-3.345658 l 185.85026,-7.698363 2.00077,-0.0834 a 3.07,3.07 0 0 1 3.19665,2.826619 z"
     id="path1092" />
  <polygon
     points="798.6,94.82 812.93,246.82 644.6,250.82 628.93,103.16 "
     id="polygon1094"
     style="fill:#2babc1;fill-opacity:1"
     transform="rotate(0.47535849,520.12412,272.70935)" />
  <path
     style="opacity:0.1"
     inkscape:connector-curvature="0"
     d="m 827.75801,262.17192 a 3.08,3.08 0 0 1 -3.02711,3.255 L 808.495,86.476056 l 2.00077,-0.0834 a 3.07,3.07 0 0 1 3.19665,2.826619 z"
     id="path1096" />
  <path
     style="opacity:0.1"
     inkscape:connector-curvature="0"
     d="m 169.7821,84.176911 -24.06491,180.086539 -3.46914,-0.11878 a 4.3,4.3 0 0 1 -4.11945,-4.90435 L 165.18206,87.778871 a 4.3,4.3 0 0 1 4.60004,-3.60196 z"
     id="path1098" />
  <rect
     style="opacity:0.1"
     x="213.84464"
     y="302.08542"
     width="19"
     height="17.08"
     id="rect1100"
     transform="rotate(0.47535849)" />
  <polygon
     style="opacity:0.1"
     points="298.1,488.62 250.93,489.88 250.93,483.65 298.1,483.65 "
     id="polygon1102"
     transform="rotate(0.47535849,520.12412,272.70935)" />
  <path
     style="fill:#65617d"
     inkscape:connector-curvature="0"
     d="m 381.02582,311.2073 -1.39547,168.19421 a 4,4 0 0 1 -3.88264,3.91793 l -191.68572,3.5098 -0.05,-4.1e-4 a 4,4 0 0 1 -3.9171,-3.98264 l 1.43778,-173.29403 a 4,4 0 0 1 3.98264,-3.9171 l 191.5934,1.58961 a 4,4 0 0 1 3.9171,3.98263 z"
     id="path1104" />
  <path
     style="opacity:0.1"
     inkscape:connector-curvature="0"
     d="m 185.56531,305.63548 -1.50332,181.19376 -0.05,-4.1e-4 a 4,4 0 0 1 -3.9171,-3.98264 l 1.43778,-173.29403 a 4,4 0 0 1 3.98264,-3.9171 z"
     id="path1106" />
  <polygon
     style="fill:#d4dfec"
     points="372.1,319.15 372.1,467.4 194.6,471.4 194.6,319.15 "
     id="polygon1108"
     transform="rotate(0.47535849,520.12412,272.70935)" />
  <rect
     style="opacity:0.1"
     x="725.17462"
     y="302.08542"
     width="19"
     height="17.42"
     id="rect1110"
     transform="rotate(0.47535849)" />
  <polygon
     style="opacity:0.1"
     points="726.1,490.06 678.93,488.8 678.93,483.65 726.1,483.65 "
     id="polygon1112"
     transform="rotate(0.47535849,520.12412,272.70935)" />
  <path
     style="fill:#65617d"
     inkscape:connector-curvature="0"
     d="M 788.01181,314.58397 786.57403,487.878 a 4,4 0 0 1 -4.03263,3.91668 v 0 l -191.6411,-6.69017 a 4,4 0 0 1 -3.81709,-3.98181 l 1.39547,-168.19421 a 4,4 0 0 1 3.98263,-3.91709 l 191.59341,1.5896 a 4,4 0 0 1 3.95709,3.98297 z"
     id="path1114" />
  <path
     style="opacity:0.1"
     inkscape:connector-curvature="0"
     d="M 788.01181,314.58397 786.57403,487.878 a 4,4 0 0 1 -4.03263,3.91668 v 0 l 1.50332,-181.19376 v 0 a 4,4 0 0 1 3.96709,3.98305 z"
     id="path1116" />
  <polygon
     style="fill:#d4dfec"
     points="598.1,319.15 598.1,467.4 775.6,471.4 775.6,319.15 "
     id="polygon1118"
     transform="rotate(0.47535849,520.12412,272.70935)" />
  <path
     style="fill:#65617d"
     inkscape:connector-curvature="0"
     d="m 583.51885,312.88734 -1.39547,168.19421 a 4,4 0 0 1 -3.88264,3.91792 l -191.68572,3.50981 v 0 a 4,4 0 0 1 -3.96709,-3.98305 l 1.43778,-173.29404 a 4,4 0 0 1 3.98264,-3.91709 l 191.5934,1.5896 a 4,4 0 0 1 3.9171,3.98264 z"
     id="path1120" />
  <polygon
     style="fill:#d4dfec"
     points="574.6,319.15 574.6,467.4 397.1,471.4 397.1,319.15 "
     id="polygon1122"
     transform="rotate(0.47535849,520.12412,272.70935)" />
  <polygon
     style="opacity:0.1"
     points="349.78,551.4 349.63,551.4 304.98,551.82 304.5,551.83 106.1,553.65 106.1,538.65 308.61,537.32 309.09,537.32 350.08,537.04 350.27,537.04 633.35,535.17 633.64,535.17 633.81,535.16 634.28,535.16 639.07,535.13 640.53,535.13 715.02,534.63 719.42,534.61 720.4,534.6 863.1,533.65 863.1,546.65 711.18,548.05 709.56,548.08 651.82,548.61 650.44,548.63 632.89,548.78 632.37,548.78 525.39,549.77 "
     id="polygon1124"
     transform="rotate(0.47535849,520.12412,272.70935)" />
  <circle
     style="fill:#fbbebe"
     cx="489.50464"
     cy="267.83542"
     r="51.330002"
     id="circle1126"
     transform="rotate(0.47535849)" />
  <path
     inkscape:connector-curvature="0"
     style="fill:url(#dff037aa-d578-4bab-81e7-399360663117)"
     d="m 302.0888,550.38064 c 9.2e-4,-0.11 0.0619,-0.2295 0.1029,-0.34916 1.02975,-3.58158 2.86005,-9.63661 4.23024,-14.47541 0.17498,-0.59856 0.33986,-1.18722 0.49451,-1.74595 1.51533,-5.45762 4.48151,-18.24345 6.13774,-26.21998 0.58329,-2.80526 1.04145,-4.99153 1.14057,-6.09075 0.21402,-1.68828 3.2839,-8.89306 6.76272,-17.17448 2.43837,-5.81998 5.10121,-12.1781 7.05578,-17.54207 a 61.38,61.38 0 0 0 3.01162,-9.82535 5.1,5.1 0 0 0 0.0177,-2.12993 14.69,14.69 0 0 1 -0.45094,-3.50386 v 0 c -0.17856,-6.2017 1.75269,-15.98601 4.64669,-20.07214 3.54136,-4.97079 6.19608,-23.60941 6.19608,-23.60941 0,0 5.1736,0.79295 6.02908,-3.4801 a 6.15,6.15 0 0 0 0.11161,-1.39912 7.41,7.41 0 0 0 -0.0808,-1.11071 c -0.8382,-6.24717 14.82635,-12.75743 23.61791,-14.11454 a 19.67,19.67 0 0 1 3.00222,-0.2551 27.24,27.24 0 0 0 6.26173,-1.3881 q 1.40352,-0.41837 3.0082,-0.97507 c 3.69016,-1.20943 8.10361,-2.81287 12.78838,-4.57406 17.6159,-6.66408 38.95141,-15.67738 38.95141,-15.67738 0.15589,-0.70873 0.33152,-1.3873 0.52708,-2.0557 a 27.71,27.71 0 0 1 16.50648,-18.7937 v 0 c 0.005,-0.65998 0.011,-1.32996 0.0166,-1.99993 0.0286,-3.44988 -0.0919,-7.00101 -0.21255,-10.54213 0.006,-0.68997 -0.0485,-1.38045 -0.0828,-2.07076 0.002,-0.19999 0.003,-0.40998 0.005,-0.60998 0.002,-0.19999 0.003,-0.34998 0.004,-0.51998 0.006,-0.69997 -0.0584,-1.40053 -0.0927,-2.09084 l -0.17883,-0.14149 a 16.41,16.41 0 0 1 -3.86502,-4.23221 15.27,15.27 0 0 1 -1.39507,-3.01168 c -1.22183,-3.40025 -1.48046,-7.18253 -2.29073,-10.76937 l -0.17385,-0.74147 a 84,84 0 0 0 -3.91209,-10.61282 c -2.16495,-5.43815 -3.8186,-11.03206 -5.46167,-16.69589 q -1.49738,-5.1426 -3.0246,-10.30545 l -1.53648,-5.25293 c -0.29169,-1.00245 -0.58338,-2.0049 -0.80508,-3.00678 v 0 a 13.27,13.27 0 0 1 -0.24837,-1.40211 10,10 0 0 1 0.27824,-4.60785 32.09,32.09 0 0 1 1.34484,-2.98894 7.87,7.87 0 0 0 0.51143,-1.37581 v 0 a 3,3 0 0 0 0.0827,-0.31932 5.65,5.65 0 0 0 0.11896,-1.07905 18.46,18.46 0 0 0 -0.48771,-3.89418 0.07,0.07 0 0 1 4.2e-4,-0.05 2.56,2.56 0 0 0 -0.0478,-0.27041 25.48,25.48 0 0 1 -0.3351,-3.00288 28.45,28.45 0 0 1 3.59906,-15.54068 l 0.19298,-0.35841 a 25.22,25.22 0 0 1 1.863,-2.76464 v 0 c 0.31347,-0.41741 0.63678,-0.81474 1.01008,-1.21166 -1.41106,1.32834 -3.70609,0.71928 -4.9941,-0.73146 a 3.61,3.61 0 0 1 -0.54376,-0.75453 3.81,3.81 0 0 1 -0.22626,-0.4519 c -0.049,-0.12041 -0.0879,-0.25073 -0.12684,-0.38106 -0.67965,-2.45572 0.56196,-5.05551 2.17842,-7.03217 a 18.49,18.49 0 0 1 5.77879,-4.65222 v 0 a 3.84,3.84 0 0 1 0.40173,-0.20667 17.12,17.12 0 0 1 2.64871,-1.03806 v 0 a 15.06,15.06 0 0 1 1.63359,-0.42646 l -3.70705,-0.37077 -1.49879,-0.15244 a 14.49,14.49 0 0 1 13.09007,-10.80177 l 1.07996,0.009 a 11.73,11.73 0 0 1 1.56887,0.14302 4.44,4.44 0 0 1 -2.61399,-4.35184 14.41,14.41 0 0 0 9.1643,3.13614 l 0.37999,0.003 a 30,30 0 0 1 -0.31286,-3.2727 v 0 a 33.19,33.19 0 0 1 0.037,-4.45985 8.44,8.44 0 0 0 6.76102,2.31617 l -2.05587,-2.91715 a 9.49,9.49 0 0 0 6.54277,2.10435 l 0.48039,-0.046 a 7,7 0 0 0 1.19187,-0.22012 l 0.09,7.5e-4 c -0.188,-0.24157 -0.35592,-0.49297 -0.52376,-0.75437 l -0.059,-0.12049 a 9.67,9.67 0 0 1 -0.98263,-2.09823 6.59,6.59 0 0 1 -0.23277,-0.87196 v 0 a 8.75,8.75 0 0 1 0.4952,-5.44608 c 3.20748,2.72671 6.71675,6.44595 10.96975,3.69114 4.253,-2.75481 4.43548,-7.87347 11.06093,-7.29849 a 10.2,10.2 0 0 1 8.35894,6.18957 6.75,6.75 0 0 1 7.68425,-1.68631 6.85,6.85 0 0 1 3.82271,6.92195 c 2.75563,-0.66716 5.72117,-1.32258 8.35245,-0.26071 2.63128,1.06187 4.30326,4.44586 2.78465,6.68333 a 1.43,1.43 0 0 1 -0.14166,0.19884 c -1.24315,1.57974 -3.97027,2.42714 -3.69687,4.42948 l 0.41749,0.30347 1.29216,0.95075 q 7.60394,5.58328 14.80325,11.72322 c 2.46265,2.10051 5.08182,4.62232 5.22485,7.87362 a 8.64,8.64 0 0 1 -0.25965,2.36793 v 0 c -0.16647,0.77864 -0.39293,1.55679 -0.5694,2.33536 a 19.51,19.51 0 0 0 -0.39018,6.04697 v 0 c 0.0651,0.59056 0.15029,1.17128 0.25539,1.76218 1.46582,7.74242 7.59267,14.17348 8.13719,22.06827 l -0.005,0.55998 a 17.78,17.78 0 0 1 -0.091,2.52933 c -0.49981,4.79602 -2.75798,9.38744 -4.596,13.96235 -0.11232,0.27908 -0.22464,0.55815 -0.32696,0.83731 -3.54455,8.97091 -5.62404,18.54398 -7.23338,28.10096 a 100.26,100.26 0 0 1 -2.08365,10.07306 26.73,26.73 0 0 1 -5.17635,10.38741 16.22,16.22 0 0 1 -3.38478,2.97202 18.67,18.67 0 0 1 -2.6616,1.38797 c 0,0 0,0 -5e-4,0.06 0.10493,0.61089 0.18987,1.22161 0.2948,1.83251 0.0574,0.32048 0.10469,0.64089 0.1617,1.00137 v 0 a 0.14,0.14 0 0 0 -5e-4,0.06 c 0.80073,4.73681 1.72229,9.37461 2.69575,13.78284 l 0.49181,2.19415 c 12.56182,4.65438 13.97444,13.98642 14.03482,17.55705 a 9.64,9.64 0 0 1 -0.0119,1.42995 c 0,0 18.9952,0.65761 26.44931,6.21965 a 20.34,20.34 0 0 0 4.49076,2.33734 83,83 0 0 0 9.22571,2.96664 c 1.60646,0.43334 3.283,0.85727 4.98962,1.27144 2.99417,0.71487 6.1685,1.41123 9.23309,2.07667 8.17603,1.71789 15.87456,3.13181 19.77613,4.16422 9.3101,2.43732 30.47962,23.07367 30.47962,23.07367 0,0 2.32867,20.66003 4.80362,23.69067 2.47494,3.03063 6.88701,13.6476 6.88701,13.6476 l 16.29543,29.54621 6.89713,12.42765 4.49984,0.0373 c 0.61998,0.005 1.83264,0.89523 3.19247,2.12656 1.18116,1.06983 2.49017,2.40074 3.64017,3.61032 l 1.90293,2.06586 1.18892,1.33991 c 0,0 7.26826,0.24031 9.19049,6.00646 5.9212,-0.12088 13.18772,0.32942 18.25863,2.65157 a 14.14,14.14 0 0 1 1.99097,1.09656 8.68,8.68 0 0 1 4.0829,5.69407 8.34,8.34 0 0 1 0.16804,1.44144 c -0.005,0.56998 -0.009,1.13996 -0.0141,1.69994 -0.42279,7.56675 -5.40489,13.82563 -9.96991,18.02791 l 0.31526,0.57263 c 0,0 -0.15298,0.35874 -0.44828,0.99632 -0.0816,0.18933 -0.18331,0.39849 -0.2953,0.63757 v 0 c -0.60044,1.25506 -1.55608,3.1372 -2.80438,5.33692 a 63.31,63.31 0 0 1 -9.67893,13.09014 l -0.29248,0.29759 -57.74241,0.0509 -0.16834,-0.2014 -11.08877,-13.45246 -5.51472,-6.68599 -0.16825,-0.2114 -0.17319,1.58862 -0.58395,5.29534 -1.40623,12.79877 -0.0753,0.6394 -10e-4,0.16999 -0.16227,1.47871 0.12227,-1.47904 -0.28999,-0.002 -107.00461,0.11225 -175.63005,0.4829 -0.007,0.83997 -0.14,-10e-4 0.007,-0.83997 -44.75244,0.10872 z"
     id="path1128" />
  <path
     style="fill:#fbbebe"
     inkscape:connector-curvature="0"
     d="m 537.73279,377.30969 c 0,0 -99.59613,11.17409 -89.9969,-0.74668 3.47589,-4.31131 4.53255,-17.16299 4.4641,-31.81406 -0.0231,-4.45034 -0.14483,-9.06151 -0.33674,-13.65326 -0.91744,-22.00837 -3.38897,-43.52962 -3.38897,-43.52962 0,0 87.33716,-40.27679 77.06787,-7.86088 -4.1088,13.09637 -2.95183,31.5466 -0.0556,48.88123 0.84807,5.05721 1.83697,10.01558 2.87794,14.72438 a 344.67,344.67 0 0 0 9.36825,33.99889 z"
     id="path1130" />
  <path
     style="opacity:0.1"
     inkscape:connector-curvature="0"
     d="m 537.73279,377.30969 c 0,0 -99.59613,11.17409 -89.9969,-0.74668 3.47589,-4.31131 4.53255,-17.16299 4.4641,-31.81406 15.22324,-6.35392 34.4825,-1.36396 34.4825,-1.36396 20.3529,-3.88128 33.3759,-2.9832 41.68205,-0.0742 a 344.67,344.67 0 0 0 9.36825,33.99889 z"
     id="path1132" />
  <path
     inkscape:connector-curvature="0"
     d="m 347.42434,551.10679 0.007,-0.83998 175.6298,-0.4529 107.00461,-0.11225 0.29999,0.002 -0.12227,1.47904 0.16227,-1.4787 0.19,0.002 10e-4,-0.16999 1.48154,-13.43817 0.56221,-5.08551 0.17318,-1.58862 0.15103,-1.32879 6.35078,-20.55802 6.35053,-20.52802 5.3436,-17.28626 8.15942,-26.41322 c 0,0 -4.41274,-10.53697 -6.88776,-13.55761 -2.47503,-3.02064 -4.80486,-23.54067 -4.80486,-23.54067 0,0 -21.1706,-20.50635 -30.48087,-22.92368 -3.90156,-1.0324 -11.61026,-2.4264 -19.79613,-4.16438 -3.06475,-0.64545 -6.20916,-1.33156 -9.23309,-2.07667 -1.7067,-0.40417 -3.38324,-0.8281 -4.98978,-1.25144 a 87.91,87.91 0 0 1 -9.22596,-2.93665 20.7,20.7 0 0 1 -4.48084,-2.32725 c -7.30503,-5.4508 -25.71934,-6.2136 -26.42931,-6.21949 v 0 a 0.42,0.42 0 0 1 5.8e-4,-0.07 l 7.4e-4,-0.09 a 10.26,10.26 0 0 0 0.0105,-1.25996 c 0.003,-0.39998 0.007,-0.86997 -0.0784,-1.4007 10e-4,-0.15999 0.003,-0.32998 -0.0658,-0.50056 -0.047,-0.3604 -0.10386,-0.74089 -0.19054,-1.14162 a 5,5 0 0 0 -0.1156,-0.53098 17.21,17.21 0 0 0 -1.221,-3.50025 c -0.0687,-0.16057 -0.15726,-0.33131 -0.23593,-0.49197 a 18.25,18.25 0 0 0 -1.67812,-2.64401 c -0.12858,-0.17108 -0.26709,-0.35223 -0.41567,-0.52347 a 19.58,19.58 0 0 0 -2.698,-2.66248 c -0.26825,-0.21223 -0.54642,-0.43454 -0.83475,-0.63694 a 4.67,4.67 0 0 0 -0.50699,-0.36422 l -0.88516,-0.58737 -0.82599,-0.48687 c -0.72666,-0.40604 -1.49339,-0.80241 -2.3303,-1.17937 -0.25899,-0.12215 -0.53807,-0.23447 -0.81715,-0.34679 -0.27907,-0.11232 -0.71765,-0.28597 -1.08648,-0.42903 l -0.06,-5e-4 -0.74749,-0.30621 c -0.5684,-0.19472 -1.14697,-0.36953 -1.75554,-0.54458 l -0.92798,-0.24771 -0.99805,-0.23829 -0.99823,-0.21829 c -0.9983,-0.20829 -2.06677,-0.39716 -3.18557,-0.54645 l -1.1388,-0.14945 -1.16897,-0.1297 -1.20913,-0.11004 -1.71911,-0.11426 -1.99935,-0.0866 a 124.68,124.68 0 0 0 -26.26224,2.5722 72.27,72.27 0 0 0 -18.24544,-1.83144 l -0.86997,-0.007 -1.00046,0.0517 -0.63998,-0.005 -1.29095,0.10929 c -0.42998,-0.004 -0.87071,0.0828 -1.3012,0.13921 -0.43048,0.0564 -0.88088,0.1027 -1.31145,0.16913 l -0.66089,0.10452 c -0.65089,0.1046 -1.31186,0.21912 -2.003,0.35339 q -0.33048,0.0573 -0.66122,0.14452 c -0.87154,0.18278 -1.74342,0.40555 -2.60555,0.65841 -0.43098,0.11642 -0.86213,0.25285 -1.29336,0.39928 -0.22049,0.0582 -0.43114,0.13643 -0.6418,0.21468 l -0.64189,0.22468 -0.63205,0.24477 -0.75246,0.29377 c -0.38132,0.15684 -0.75271,0.32376 -1.1242,0.50069 -0.21073,0.0883 -0.42156,0.18651 -0.62246,0.29484 -0.20091,0.10834 -0.41165,0.19659 -0.60255,0.30501 a 27.75,27.75 0 0 0 -6.24613,4.32833 l -0.51405,0.48575 -0.50421,0.50584 c -0.17141,0.16858 -0.33289,0.34725 -0.49438,0.52591 a 23.82,23.82 0 0 0 -1.83861,2.23483 c -0.16173,0.20866 -0.31347,0.41741 -0.46529,0.63616 a 26.69,26.69 0 0 0 -1.74417,2.90563 c -0.13198,0.23891 -0.25405,0.48791 -0.37604,0.7269 a 32.7,32.7 0 0 0 -2.04349,5.23323 q -0.28828,0.99764 -0.52657,1.9957 c 0,0 -21.24676,9.16404 -38.86224,15.77812 -4.68478,1.7612 -9.09815,3.35464 -12.78823,4.55406 -1.07295,0.35111 -2.07565,0.67281 -3.00819,0.97508 a 26.7,26.7 0 0 1 -6.26173,1.3881 19.67,19.67 0 0 0 -3.00222,0.2551 c -8.08059,1.243 -21.95732,6.81806 -23.51464,12.51534 a 3.69,3.69 0 0 0 -0.11161,1.39912 c 0,0 -5.9e-4,0.07 -9.2e-4,0.11 0.94189,7.00805 -6.04957,5.95001 -6.04957,5.95001 0,0 -2.6534,18.47862 -6.19476,23.44942 -2.55978,3.57888 -4.35634,11.59425 -4.62661,17.65222 v 0 a 19.61,19.61 0 0 0 0.39327,5.63345 c -4.1e-4,0.05 -8.2e-4,0.1 -10e-4,0.14 0.38887,1.34327 -0.60146,4.99518 -2.27031,9.6715 -1.81267,5.13514 -4.44568,11.51351 -6.9757,17.53273 -3.81554,9.08865 -7.40411,17.33917 -7.6392,19.15728 -0.0967,0.80922 -0.36874,2.25702 -0.74424,4.12397 -1.52317,7.60762 -4.88344,22.09024 -6.53209,27.94676 -1.2263,4.36998 -3.00602,10.35542 -4.23016,14.46541 -9.9e-4,0.11999 -0.072,0.23941 -0.1029,0.34915 l 44.83211,-0.068 -0.007,0.83997 0.14,10e-4 z"
     id="path1134"
     style="fill:#68ab54;fill-opacity:1" />
  <path
     style="opacity:0.1"
     inkscape:connector-curvature="0"
     d="m 364.76168,433.37657 c 0,0 56.75329,29.97189 77.28163,26.64208 z"
     id="path1136" />
  <path
     style="opacity:0.1"
     inkscape:connector-curvature="0"
     d="m 480.85725,422.33938 c 0,0 55.34875,18.45983 73.82737,21.11323 18.47862,2.6534 -73.82737,-21.11323 -73.82737,-21.11323 z"
     id="path1138" />
  <path
     style="opacity:0.1"
     inkscape:connector-curvature="0"
     d="m 542.89566,364.9321 c -29.04331,5.09922 -83.63189,3.49627 -107.22435,2.4905 8.90689,-30.92717 50.99799,-20.03758 50.99799,-20.03758 52.29466,-9.98649 56.11515,11.66596 56.22636,17.54708 z"
     id="path1140" />
  <path
     inkscape:connector-curvature="0"
     d="m 542.91225,362.93217 c -29.0433,5.09922 -83.63188,3.49627 -107.22435,2.4905 8.90689,-30.92717 50.998,-20.03758 50.998,-20.03758 52.29465,-9.98649 56.11514,11.66595 56.22635,17.54708 z"
     id="path1142"
     style="fill:#68ab54;fill-opacity:1" />
  <path
     style="fill:#fbbebe"
     inkscape:connector-curvature="0"
     d="m 695.71308,500.87463 c 0,0 34.20238,-4.96642 34.74791,10.03863 0.54553,15.00504 -17.6308,25.33459 -17.6308,25.33459 z"
     id="path1144" />
  <path
     style="opacity:0.1"
     inkscape:connector-curvature="0"
     d="m 525.4866,328.58642 a 47,47 0 0 1 -4.51428,1.7026 c -10.81049,3.63044 -21.71123,7.29013 -33.07212,8.55591 -11.36089,1.26579 -23.26053,-0.033 -33.11323,-5.77492 a 28.77,28.77 0 0 1 -2.98372,-1.97482 c -0.91744,-22.00837 -3.38897,-43.52961 -3.38897,-43.52961 0,0 87.33716,-40.2768 77.06787,-7.86088 -4.0888,13.09652 -2.89183,31.54709 0.004,48.88172 z"
     id="path1146" />
  <path
     style="fill:#3f3d56"
     inkscape:connector-curvature="0"
     d="m 473.8518,191.54331 a 9.47,9.47 0 0 1 -8.3052,-1.81896 l 2.05596,2.90715 a 8.47,8.47 0 0 1 -6.7611,-2.30617 34.08,34.08 0 0 0 0.25569,7.75239 14.52,14.52 0 0 1 -9.53478,-3.07921 4.42,4.42 0 0 0 2.60415,4.33175 14.34,14.34 0 0 0 -15.68832,10.58021 l 5.21584,0.52329 a 18.47,18.47 0 0 0 -10.49249,6.28317 c -1.61654,1.98665 -2.85774,4.53644 -2.178,6.98217 0.67973,2.44572 4.04667,4.03371 5.90104,2.30903 a 27.94,27.94 0 0 0 -6.28886,22.73861 14.47,14.47 0 0 1 0.41634,5.26364 c -0.34368,1.6472 -1.39551,3.06852 -1.92885,4.67415 -1.02419,2.91161 -0.10052,6.08938 0.76531,9.00666 l 4.5619,15.45838 c 1.65373,5.58392 3.29738,11.17774 5.47259,16.58598 a 82.08,82.08 0 0 1 3.91266,10.54282 c 1.21981,4.85029 1.22583,10.15052 3.88065,14.40269 a 19.93,19.93 0 0 0 7.12723,6.38935 c 9.8427,5.74186 21.78234,7.04096 33.11323,5.77493 11.33089,-1.26604 22.22163,-4.92581 33.02212,-8.55633 a 31,31 0 0 0 6.86466,-2.94315 c 7.49023,-4.81802 9.23297,-14.78391 10.69585,-23.56207 1.63125,-9.78681 3.78232,-19.5493 7.52869,-28.73853 2.22547,-5.47173 5.09158,-11.01814 4.66038,-16.90192 -0.54518,-7.81479 -6.67245,-14.19584 -8.13868,-21.88827 a 19,19 0 0 1 0.13446,-7.76916 17.66,17.66 0 0 0 0.82897,-4.69328 c -0.14328,-3.2213 -2.76262,-5.72312 -5.22536,-7.81362 q -8.0138,-6.80672 -16.55373,-12.87778 c -0.2734,-2.00234 2.45365,-2.83974 3.69671,-4.40948 1.75844,-2.21549 -0.0121,-5.7703 -2.64341,-6.83217 -2.63128,-1.06187 -5.59682,-0.40645 -8.35245,0.26071 a 6.59,6.59 0 0 0 -11.5072,-5.20565 10.2,10.2 0 0 0 -8.36927,-6.14964 c -6.62546,-0.57499 -6.79752,4.49376 -11.06052,7.24848 -4.263,2.75473 -7.73235,-0.95418 -10.97,-3.66113 a 9.28,9.28 0 0 0 1.28379,9.19096 z"
     id="path1148" />
  <path
     inkscape:connector-curvature="0"
     d="m 720.79331,531.08374 c 0,0 -0.90756,2.11255 -2.57297,5.16883 a 69,69 0 0 1 -9.10896,13.09488 l -0.27239,0.28775 -1.61995,-0.0134 -57.74241,0.051 -1.37995,-0.0115 -0.16834,-0.20141 -11.08935,-13.38246 -4.17829,-5.04484 -0.16825,-0.2114 -0.3565,-0.42297 -0.19801,-0.24166 -0.25742,-0.31214 -8.12891,-9.80778 3.10361,-12.47468 5.28455,-21.01688 0.13422,-0.50891 1.03315,-3.99156 0.73487,-2.99401 2.46106,-9.75992 8.43889,-33.58114 14.43728,7.62004 15.06547,27.12593 8.08942,14.56761 4.49984,0.0373 c 0.84997,0.007 2.7863,1.66317 4.73055,3.56937 0.69442,0.67578 1.3885,1.39156 1.98334,2.01652 1.76467,1.8547 3.16152,3.44635 3.16152,3.44635 0,0 7.28842,0.22047 9.20073,5.97654 a 7,7 0 0 1 0.24294,0.85204 40.3,40.3 0 0 0 2.47549,6.58077 c 1.26664,2.8206 2.86012,6.02393 4.47359,9.22743 3.00137,5.8751 6.05505,11.47063 7.17825,13.50002 l 0.13792,0.25115 z"
     id="path1150"
     style="fill:#68ab54;fill-opacity:1" />
  <path
     style="opacity:0.1"
     inkscape:connector-curvature="0"
     d="m 635.27085,485.22263 -0.11186,1.42912 -8.3e-4,0.1 -0.18907,2.29851 -1.48353,18.49833 -1.79495,22.28587 -0.51209,6.27597 -1.11147,13.43124 -10e-4,0.16999 -107.00461,0.11225 -175.59972,0.44315 -0.007,0.83997 -0.14,-10e-4 0.007,-0.83997 0.002,-0.27999 0.56913,-14.35577 1.09277,-28.0519 0.93734,-23.78304 0.0897,-2.36934 a 10.53,10.53 0 0 1 11.50399,-10.0749 c 4.71651,0.43914 10.84224,0.97998 18.16767,1.56078 l 2.99807,0.24488 c 42.30416,3.29109 120.49994,7.73999 199.47654,3.65508 1.66069,-0.0762 3.33147,-0.16237 5.0024,-0.26851 12.24597,-0.66842 24.48376,-1.55692 36.60363,-2.69641 a 10.53,10.53 0 0 1 11.50644,11.32585 z"
     id="path1152" />
  <path
     style="fill:#3f3d56"
     inkscape:connector-curvature="0"
     d="m 347.42434,551.10679 0.007,-0.83998 175.6298,-0.4529 107.00461,-0.11225 0.29999,0.002 0.001,-0.16999 1.11147,-13.43124 0.47977,-5.99623 1.82752,-22.59561 1.43847,-17.88869 0.004,-0.43998 a 10.62,10.62 0 0 0 -0.0895,-2.47083 0.3,0.3 0 0 0 8.3e-4,-0.1 10.39,10.39 0 0 0 -1.96143,-4.65644 10.54,10.54 0 0 0 -9.38649,-4.07801 c -12.11987,1.13948 -24.35767,2.02798 -36.60363,2.69641 -1.67094,0.10614 -3.34171,0.19228 -5.0024,0.26851 -78.9762,4.03491 -157.17198,-0.41399 -199.47654,-3.65508 l -2.99807,-0.24488 c -7.32544,-0.5808 -13.45124,-1.11164 -18.16768,-1.56079 a 10.54,10.54 0 0 0 -11.31038,8.43646 11,11 0 0 0 -0.1936,1.63845 l -0.86383,22.15359 -1.16285,28.06132 -0.55912,14.35586 -0.002,0.27999 -0.007,0.83997 z"
     id="path1154" />
  <path
     style="opacity:0.1"
     inkscape:connector-curvature="0"
     d="m 635.51268,492.23488 -1.35714,15.31926 -2.01951,22.83404 -0.50744,5.71598 -1.10624,12.80127 -0.0653,0.63948 -10e-4,0.16999 v 0 l -0.16228,1.4787 0.12228,-1.47903 -0.28999,-0.002 -107.00462,0.11224 -175.65971,0.44266 0.002,-0.27999 0.60912,-14.35544 1.23276,-28.05074 0.79471,-18.64404 a 6.36,6.36 0 0 1 3.10345,-5.22444 6.25,6.25 0 0 1 3.78734,-0.8686 c 2.09852,0.18741 4.67677,0.40881 7.68484,0.65378 4.88685,0.40055 10.91315,0.87057 17.92926,1.36879 12.99275,0.92783 29.29489,1.94311 47.97827,2.81815 51.98162,2.43135 122.17364,3.68374 188.8998,-1.60285 3.00205,-0.2351 6.10435,-0.49938 9.13666,-0.76423 a 6.26,6.26 0 0 1 3.4744,0.68885 5.16,5.16 0 0 1 0.85549,0.54712 6.14,6.14 0 0 1 1.97952,2.47651 3.56,3.56 0 0 1 0.24493,0.61205 6.28,6.28 0 0 1 0.3385,2.5929 z"
     id="path1156" />
  <path
     style="opacity:0.1"
     inkscape:connector-curvature="0"
     d="m 296.18078,503.10999 -0.0265,3.18989 a 6.13,6.13 0 0 1 -3.54584,5.51077 l -40.10501,0.43729 a 6.12,6.12 0 0 1 -3.52366,-5.59943 l 0.0249,-2.99989 z"
     id="path1158" />
  <polygon
     style="fill:#3f3d56"
     points="246.35,516.57 246.35,507.9 298.6,506.9 298.6,515.57 "
     id="polygon1160"
     transform="rotate(0.47535849,520.12412,272.70935)" />
  <polygon
     style="opacity:0.1"
     points="246.35,516.57 246.35,507.9 298.6,506.9 298.6,515.57 "
     id="polygon1162"
     transform="rotate(0.47535849,520.12412,272.70935)" />
  <polygon
     style="fill:#3f3d56"
     points="248.35,516.57 248.35,507.9 300.6,506.9 300.6,515.57 "
     id="polygon1164"
     transform="rotate(0.47535849,520.12412,272.70935)" />
  <g
     style="opacity:0.1"
     id="g1184"
     transform="rotate(0.47535849,520.12412,272.70935)">
    <path
       inkscape:connector-curvature="0"
       d="m 552.93,361.56 a 9.75,9.75 0 0 1 -1.89,-4.34 9.49,9.49 0 0 0 0.42,4.6 9,9 0 0 0 1.47,-0.26 z"
       transform="translate(-79.34,-172.91)"
       id="path1166" />
    <path
       inkscape:connector-curvature="0"
       d="m 540.23,368.2 a 35.12,35.12 0 0 1 -0.37,-3.7 c 0,1.23 0,2.47 0,3.71 z"
       transform="translate(-79.34,-172.91)"
       id="path1168" />
    <path
       inkscape:connector-curvature="0"
       d="m 621.73,401.57 a 18.34,18.34 0 0 1 0.36,-2.65 18,18 0 0 0 0.8,-4.69 6.16,6.16 0 0 0 -0.16,-1.06 c -0.17,0.92 -0.44,1.84 -0.64,2.75 a 19.14,19.14 0 0 0 -0.36,5.65 z"
       transform="translate(-79.34,-172.91)"
       id="path1170" />
    <path
       inkscape:connector-curvature="0"
       d="m 600.93,370.67 1.09,0.79 a 19.71,19.71 0 0 0 2.57,-2.22 3.67,3.67 0 0 0 0.38,-3.64 3,3 0 0 1 -0.38,0.64 c -1.23,1.58 -3.95,2.45 -3.66,4.43 z"
       transform="translate(-79.34,-172.91)"
       id="path1172" />
    <path
       inkscape:connector-curvature="0"
       d="m 518.76,380.29 a 12.32,12.32 0 0 0 -0.87,2.28 18.16,18.16 0 0 1 5,-1.89 z"
       transform="translate(-79.34,-172.91)"
       id="path1174" />
    <path
       inkscape:connector-curvature="0"
       d="m 532.55,369.41 a 14.83,14.83 0 0 1 -1.88,-1.23 4.25,4.25 0 0 0 0.09,1.18 11.86,11.86 0 0 1 1.79,0.05 z"
       transform="translate(-79.34,-172.91)"
       id="path1176" />
    <path
       inkscape:connector-curvature="0"
       d="m 630.32,428.33 c -0.41,4.85 -2.67,9.52 -4.5,14.12 -3.67,9.22 -5.74,19 -7.29,28.81 -1.39,8.79 -3,18.77 -10.5,23.64 a 30,30 0 0 1 -6.83,3 c -10.78,3.73 -21.65,7.47 -33,8.83 -11.35,1.36 -23.26,0.17 -33.16,-5.49 a 20,20 0 0 1 -7.18,-6.33 c -2.67,-4.23 -2.72,-9.53 -4,-14.37 a 82.21,82.21 0 0 0 -4,-10.52 c -2.21,-5.38 -3.91,-11 -5.6,-16.53 q -2.35,-7.71 -4.69,-15.43 a 28.81,28.81 0 0 1 -1.14,-4.75 c -0.39,2.56 0.37,5.24 1.14,7.75 q 2.34,7.73 4.69,15.43 c 1.69,5.57 3.39,11.15 5.6,16.53 a 82.21,82.21 0 0 1 4,10.52 c 1.26,4.84 1.31,10.14 4,14.37 a 20,20 0 0 0 7.18,6.33 c 9.9,5.66 21.84,6.85 33.16,5.49 11.32,-1.36 22.18,-5.1 33,-8.83 a 30,30 0 0 0 6.83,-3 c 7.45,-4.87 9.11,-14.85 10.5,-23.64 1.55,-9.81 3.62,-19.59 7.29,-28.81 2.18,-5.48 5,-11.05 4.52,-16.94 0,-0.06 -0.02,-0.12 -0.02,-0.18 z"
       transform="translate(-79.34,-172.91)"
       id="path1178" />
    <path
       inkscape:connector-curvature="0"
       d="m 510.63,424.46 c 0,0 0,-0.07 0,-0.11 a 14,14 0 0 0 -0.46,-5.25 26.59,26.59 0 0 1 -0.39,-3.32 27.35,27.35 0 0 0 0.39,6.32 c 0.16,0.78 0.34,1.57 0.46,2.36 z"
       transform="translate(-79.34,-172.91)"
       id="path1180" />
    <path
       inkscape:connector-curvature="0"
       d="m 513.68,400 a 27.74,27.74 0 0 1 2.61,-3.67 c -1.83,1.75 -5.21,0.19 -5.92,-2.24 a 5.83,5.83 0 0 0 0,3 4.39,4.39 0 0 0 3.31,2.91 z"
       transform="translate(-79.34,-172.91)"
       id="path1182" />
  </g>
  <path
     style="opacity:0.1"
     inkscape:connector-curvature="0"
     d="m 682.34421,485.01317 c 0,0 3.07448,11.5259 -0.17837,21.49926 -3.25286,9.97335 0.17837,-21.49926 0.17837,-21.49926 z"
     id="path1186" />
  <path
     style="opacity:0.1"
     inkscape:connector-curvature="0"
     d="m 695.74643,496.85476 c 0,0 1.20882,14.61054 -1.81256,17.17556 -3.02139,2.56502 1.81256,-17.17556 1.81256,-17.17556 z"
     id="path1188" />
  <line
     style="fill:none;stroke:#6c63ff;stroke-width:2;stroke-miterlimit:10"
     x1="198.41905"
     y1="340.1933"
     x2="300.03384"
     y2="340.03632"
     stroke-miterlimit="10"
     id="line1190" />
  <line
     style="fill:none;stroke:#6c63ff;stroke-width:2;stroke-miterlimit:10"
     x1="198.3156"
     y1="352.66287"
     x2="299.93033"
     y2="352.5159"
     stroke-miterlimit="10"
     id="line1192" />
  <line
     style="fill:none;stroke:#6c63ff;stroke-width:2;stroke-miterlimit:10"
     x1="198.21205"
     y1="365.14246"
     x2="299.82684"
     y2="364.98547"
     stroke-miterlimit="10"
     id="line1194" />
  <text
     xml:space="preserve"
     style="font-style:normal;font-weight:normal;font-size:20.89587212px;line-height:1.25;font-family:sans-serif;letter-spacing:0px;word-spacing:0px;fill:#000000;fill-opacity:1;stroke:none;stroke-width:2.61198401"
     x="421.01129"
     y="134.95758"
     id="text1287"
     transform="rotate(0.17529469)"><tspan
       sodipodi:role="line"
       id="tspan1285"
       x="421.01129"
       y="134.95758"
       style="stroke-width:2.61198401">Programming</tspan></text>
  <line
     style="fill:none;stroke:#6c63ff;stroke-width:2;stroke-miterlimit:10"
     x1="205.37431"
     y1="145.04918"
     x2="306.77423"
     y2="151.65562"
     stroke-miterlimit="10"
     id="line1190-3" />
  <line
     style="fill:none;stroke:#6c63ff;stroke-width:2;stroke-miterlimit:10"
     x1="204.44116"
     y1="157.48422"
     x2="305.84036"
     y2="164.10065"
     stroke-miterlimit="10"
     id="line1192-6" />
  <line
     style="fill:none;stroke:#6c63ff;stroke-width:2;stroke-miterlimit:10"
     x1="203.50726"
     y1="169.92924"
     x2="304.90717"
     y2="176.53569"
     stroke-miterlimit="10"
     id="line1194-7" />
  <line
     style="fill:none;stroke:#6c63ff;stroke-width:2;stroke-miterlimit:10"
     x1="674.91119"
     y1="197.0174"
     x2="776.39197"
     y2="191.79688"
     stroke-miterlimit="10"
     id="line1190-5" />
  <line
     style="fill:none;stroke:#6c63ff;stroke-width:2;stroke-miterlimit:10"
     x1="675.42926"
     y1="209.47662"
     x2="776.91046"
     y2="204.2661"
     stroke-miterlimit="10"
     id="line1192-3" />
  <line
     style="fill:none;stroke:#6c63ff;stroke-width:2;stroke-miterlimit:10"
     x1="675.94769"
     y1="221.94586"
     x2="777.42847"
     y2="216.72534"
     stroke-miterlimit="10"
     id="line1194-5" />
  <line
     style="fill:none;stroke:#6c63ff;stroke-width:2;stroke-miterlimit:10"
     x1="440.24176"
     y1="147.65704"
     x2="541.85651"
     y2="147.81094"
     stroke-miterlimit="10"
     id="line1190-6" />
  <line
     style="fill:none;stroke:#6c63ff;stroke-width:2;stroke-miterlimit:10"
     x1="440.10019"
     y1="160.12624"
     x2="541.71478"
     y2="160.29015"
     stroke-miterlimit="10"
     id="line1192-2" />
  <line
     style="fill:none;stroke:#6c63ff;stroke-width:2;stroke-miterlimit:10"
     x1="439.9584"
     y1="172.60544"
     x2="541.57318"
     y2="172.75935"
     stroke-miterlimit="10"
     id="line1194-9" />
  <line
     style="fill:none;stroke:#6c63ff;stroke-width:1.80624759;stroke-miterlimit:10"
     x1="678.29614"
     y1="430.70941"
     x2="761.15649"
     y2="432.53775"
     stroke-miterlimit="10"
     id="line1190-1" />
  <line
     style="fill:none;stroke:#6c63ff;stroke-width:1.80624759;stroke-miterlimit:10"
     x1="677.91315"
     y1="443.17337"
     x2="760.77319"
     y2="445.01175"
     stroke-miterlimit="10"
     id="line1192-27" />
  <line
     style="fill:none;stroke:#6c63ff;stroke-width:1.80624759;stroke-miterlimit:10"
     x1="677.52979"
     y1="455.64737"
     x2="760.39014"
     y2="457.47571"
     stroke-miterlimit="10"
     id="line1194-0" />
</svg>
